<svg width="30" height="30" viewBox="0 0 30 30" fill="none" xmlns="http://www.w3.org/2000/svg">
<path d="M26.4523 7.49741C22.9295 4.9283 19.5543 5.0005 19.5543 5.0005L19.2094 5.38459C23.3974 6.60908 25.3438 8.4097 25.3438 8.4097C19.3517 5.19465 11.7196 5.21772 5.48723 8.4097C5.48723 8.4097 7.50731 6.5129 11.9419 5.28842L11.6957 5.0002C11.6957 5.0002 8.34504 4.9283 4.79767 7.49711C4.79767 7.49711 1.25 13.7154 1.25 21.3745C1.25 21.3745 3.31958 24.8319 8.76406 25C8.76406 25 9.67557 23.9436 10.4146 23.0313C7.28596 22.119 6.1033 20.2222 6.1033 20.2222C8.06897 21.4209 10.0565 22.1711 12.5334 22.6472C16.5631 23.4555 21.5757 22.6244 25.3195 20.2222C25.3195 20.2222 24.0876 22.1669 20.8603 23.0553C21.5993 23.9436 22.4862 24.976 22.4862 24.976C27.9307 24.808 30 21.3505 30 21.3748C29.9997 13.7157 26.4523 7.49741 26.4523 7.49741ZM11.0304 19.1418C9.65067 19.1418 8.51751 17.9653 8.51751 16.5008C8.61834 12.9933 13.4676 13.0041 13.5433 16.5008C13.5433 17.9653 12.4344 19.1418 11.0304 19.1418ZM20.0222 19.1418C18.6425 19.1418 17.5094 17.9653 17.5094 16.5008C17.62 13.0002 22.4088 12.9987 22.5351 16.5008C22.5351 17.9653 21.4265 19.1418 20.0222 19.1418Z" fill="black"/>
</svg>
