<svg width="36" height="36" viewBox="0 0 36 36" fill="none" xmlns="http://www.w3.org/2000/svg">
<g clip-path="url(#clip0_8_1427)">
<path d="M31.0571 8.83178C26.9392 5.82866 22.9938 5.91306 22.9938 5.91306L22.5906 6.36204C27.4861 7.79339 29.7612 9.8982 29.7612 9.8982C22.757 6.14 13.8355 6.16697 6.55022 9.8982C6.55022 9.8982 8.91156 7.68096 14.0953 6.24962L13.8075 5.91271C13.8075 5.91271 9.89082 5.82866 5.74417 8.83143C5.74417 8.83143 1.59717 16.1002 1.59717 25.0532C1.59717 25.0532 4.01637 29.0947 10.3806 29.2912C10.3806 29.2912 11.4461 28.0563 12.31 26.9899C8.65282 25.9235 7.27037 23.7063 7.27037 23.7063C9.56811 25.1075 11.8914 25.9844 14.7867 26.5409C19.4972 27.4858 25.3566 26.5143 29.7328 23.7063C29.7328 23.7063 28.2929 25.9795 24.5203 27.0179C25.3842 28.0563 26.421 29.2632 26.421 29.2632C32.7852 29.0667 35.2041 25.0252 35.2041 25.0536C35.2037 16.1006 31.0571 8.83178 31.0571 8.83178ZM13.0298 22.4434C11.417 22.4434 10.0924 21.0681 10.0924 19.3562C10.2103 15.2562 15.8788 15.2688 15.9672 19.3562C15.9672 21.0681 14.671 22.4434 13.0298 22.4434ZM23.5407 22.4434C21.9279 22.4434 20.6033 21.0681 20.6033 19.3562C20.7327 15.2642 26.3304 15.2625 26.4781 19.3562C26.4781 21.0681 25.1823 22.4434 23.5407 22.4434Z" fill="url(#paint0_linear_8_1427)"/>
</g>
<defs>
<linearGradient id="paint0_linear_8_1427" x1="18.4826" y1="2.2666" x2="31.7361" y2="13.704" gradientUnits="userSpaceOnUse">
<stop stop-color="#FFC149"/>
<stop offset="0.375" stop-color="#FFFEA1"/>
<stop offset="1" stop-color="#B48900"/>
</linearGradient>
<clipPath id="clip0_8_1427">
<rect width="35.0681" height="35.0681" fill="white" transform="translate(0.13623 0.0681152)"/>
</clipPath>
</defs>
</svg>
