<svg width="35" height="25" viewBox="0 0 35 25" fill="none" xmlns="http://www.w3.org/2000/svg">
<path d="M30.0571 3.76367C25.9392 0.760544 21.9938 0.844947 21.9938 0.844947L21.5906 1.29393C26.4861 2.72527 28.7612 4.83008 28.7612 4.83008C21.757 1.07189 12.8355 1.09886 5.55022 4.83008C5.55022 4.83008 7.91156 2.61285 13.0953 1.18151L12.8075 0.844597C12.8075 0.844597 8.89082 0.760544 4.74417 3.76332C4.74417 3.76332 0.597168 11.0321 0.597168 19.9851C0.597168 19.9851 3.01637 24.0266 9.38062 24.2231C9.38062 24.2231 10.4461 22.9882 11.31 21.9218C7.65282 20.8554 6.27037 18.6381 6.27037 18.6381C8.56811 20.0394 10.8914 20.9163 13.7867 21.4728C18.4972 22.4177 24.3566 21.4462 28.7328 18.6381C28.7328 18.6381 27.2929 20.9114 23.5203 21.9498C24.3842 22.9882 25.421 24.1951 25.421 24.1951C31.7852 23.9986 34.2041 19.9571 34.2041 19.9854C34.2037 11.0325 30.0571 3.76367 30.0571 3.76367ZM12.0298 17.3753C10.417 17.3753 9.09242 16 9.09242 14.2881C9.21029 10.1881 14.8788 10.2007 14.9672 14.2881C14.9672 16 13.671 17.3753 12.0298 17.3753ZM22.5407 17.3753C20.9279 17.3753 19.6033 16 19.6033 14.2881C19.7327 10.1961 25.3304 10.1944 25.4781 14.2881C25.4781 16 24.1823 17.3753 22.5407 17.3753Z" fill="url(#paint0_linear_8_1415)"/>
<defs>
<linearGradient id="paint0_linear_8_1415" x1="17.4006" y1="0.84436" x2="17.4006" y2="28.1273" gradientUnits="userSpaceOnUse">
<stop stop-color="#D7AD19"/>
<stop offset="1" stop-color="#6C570D"/>
</linearGradient>
</defs>
</svg>
