<svg width="36" height="36" viewBox="0 0 36 36" fill="none" xmlns="http://www.w3.org/2000/svg">
<path d="M25.4046 8.04588C25.0578 8.04588 24.7188 8.14872 24.4304 8.34139C24.1421 8.53405 23.9174 8.8079 23.7847 9.12829C23.6519 9.44868 23.6172 9.80123 23.6849 10.1414C23.7525 10.4815 23.9195 10.7939 24.1647 11.0391C24.41 11.2844 24.7224 11.4513 25.0625 11.519C25.4026 11.5867 25.7552 11.5519 26.0756 11.4192C26.396 11.2865 26.6698 11.0618 26.8625 10.7734C27.0552 10.4851 27.158 10.1461 27.158 9.79929C27.158 9.33426 26.9733 8.88827 26.6444 8.55944C26.3156 8.23062 25.8696 8.04588 25.4046 8.04588ZM32.126 11.5819C32.0976 10.3696 31.8705 9.17011 31.4538 8.03127C31.0823 7.05686 30.504 6.17453 29.7589 5.445C29.0353 4.69604 28.1509 4.12144 27.1726 3.76465C26.0368 3.33531 24.836 3.10305 23.622 3.0779C22.0731 2.99023 21.5763 2.99023 17.6019 2.99023C13.6276 2.99023 13.1308 2.99023 11.5819 3.0779C10.3679 3.10305 9.1671 3.33531 8.03127 3.76465C7.05474 4.12505 6.17111 4.69916 5.445 5.445C4.69604 6.16854 4.12144 7.05293 3.76465 8.03127C3.33531 9.1671 3.10305 10.3679 3.0779 11.5819C2.99023 13.1308 2.99023 13.6276 2.99023 17.6019C2.99023 21.5763 2.99023 22.0731 3.0779 23.622C3.10305 24.836 3.33531 26.0368 3.76465 27.1726C4.12144 28.1509 4.69604 29.0353 5.445 29.7589C6.17111 30.5047 7.05474 31.0788 8.03127 31.4392C9.1671 31.8686 10.3679 32.1008 11.5819 32.126C13.1308 32.2136 13.6276 32.2136 17.6019 32.2136C21.5763 32.2136 22.0731 32.2136 23.622 32.126C24.836 32.1008 26.0368 31.8686 27.1726 31.4392C28.1509 31.0824 29.0353 30.5078 29.7589 29.7589C30.5073 29.0321 31.0861 28.1489 31.4538 27.1726C31.8705 26.0338 32.0976 24.8343 32.126 23.622C32.126 22.0731 32.2136 21.5763 32.2136 17.6019C32.2136 13.6276 32.2136 13.1308 32.126 11.5819ZM29.4959 23.4466C29.4852 24.3741 29.3172 25.2931 28.9991 26.1644C28.7658 26.8003 28.391 27.3749 27.9032 27.8447C27.4293 28.3277 26.8559 28.7016 26.2228 28.9406C25.3515 29.2588 24.4326 29.4268 23.5051 29.4374C22.0439 29.5105 21.5033 29.5251 17.6604 29.5251C13.8175 29.5251 13.2769 29.5251 11.8157 29.4374C10.8526 29.4555 9.89367 29.3072 8.98103 28.9991C8.37579 28.7479 7.82869 28.3748 7.37375 27.9032C6.88877 27.4338 6.51873 26.8587 6.29248 26.2228C5.93574 25.3391 5.73788 24.3992 5.70801 23.4466C5.70801 21.9854 5.62034 21.4448 5.62034 17.6019C5.62034 13.7591 5.62034 13.2184 5.70801 11.7573C5.71456 10.809 5.88766 9.86934 6.21942 8.98103C6.47666 8.36429 6.87149 7.81452 7.37375 7.37375C7.81767 6.87135 8.3663 6.47234 8.98103 6.20481C9.87169 5.88342 10.8104 5.71543 11.7573 5.70801C13.2184 5.70801 13.7591 5.62034 17.6019 5.62034C21.4448 5.62034 21.9854 5.62034 23.4466 5.70801C24.3741 5.71865 25.2931 5.88663 26.1644 6.20481C26.8284 6.45124 27.4244 6.85188 27.9032 7.37375C28.382 7.82259 28.7562 8.37133 28.9991 8.98103C29.3238 9.87079 29.4919 10.8101 29.4959 11.7573C29.5689 13.2184 29.5835 13.7591 29.5835 17.6019C29.5835 21.4448 29.5689 21.9854 29.4959 23.4466ZM17.6019 10.1061C16.12 10.109 14.6722 10.5511 13.4415 11.3765C12.2107 12.2019 11.2522 13.3736 10.6871 14.7435C10.122 16.1135 9.97569 17.6202 10.2666 19.0732C10.5574 20.5263 11.2725 21.8606 12.3214 22.9074C13.3703 23.9543 14.7059 24.6667 16.1596 24.9548C17.6132 25.2428 19.1196 25.0935 20.4884 24.5257C21.8573 23.958 23.0271 22.9972 23.8501 21.7649C24.6731 20.5325 25.1123 19.0838 25.1124 17.6019C25.1143 16.6158 24.9212 15.639 24.5443 14.7278C24.1674 13.8165 23.614 12.9887 22.916 12.2921C22.218 11.5955 21.3892 11.0437 20.4772 10.6686C19.5652 10.2934 18.5881 10.1023 17.6019 10.1061ZM17.6019 22.4676C16.6396 22.4676 15.6989 22.1823 14.8987 21.6476C14.0985 21.113 13.4749 20.353 13.1066 19.464C12.7383 18.5749 12.642 17.5965 12.8297 16.6527C13.0175 15.7088 13.4809 14.8418 14.1614 14.1614C14.8418 13.4809 15.7088 13.0175 16.6527 12.8297C17.5965 12.642 18.5749 12.7383 19.464 13.1066C20.353 13.4749 21.113 14.0985 21.6476 14.8987C22.1823 15.6989 22.4676 16.6396 22.4676 17.6019C22.4676 18.2409 22.3418 18.8736 22.0973 19.464C21.8527 20.0543 21.4943 20.5907 21.0425 21.0425C20.5907 21.4943 20.0543 21.8527 19.464 22.0973C18.8736 22.3418 18.2409 22.4676 17.6019 22.4676Z" fill="url(#paint0_linear_8_1425)"/>
<defs>
<linearGradient id="paint0_linear_8_1425" x1="17.6732" y1="-1.56711" x2="32.1639" y2="6.79032" gradientUnits="userSpaceOnUse">
<stop stop-color="#FFC149"/>
<stop offset="0.375" stop-color="#FFFEA1"/>
<stop offset="1" stop-color="#B48900"/>
</linearGradient>
</defs>
</svg>
