<svg width="36" height="36" viewBox="0 0 36 36" fill="none" xmlns="http://www.w3.org/2000/svg">
<path d="M25.4046 7.97777C25.0578 7.97777 24.7188 8.0806 24.4304 8.27327C24.1421 8.46594 23.9174 8.73978 23.7847 9.06017C23.6519 9.38057 23.6172 9.73312 23.6849 10.0732C23.7525 10.4134 23.9195 10.7258 24.1647 10.971C24.41 11.2162 24.7224 11.3832 25.0625 11.4509C25.4026 11.5185 25.7552 11.4838 26.0756 11.3511C26.396 11.2184 26.6698 10.9937 26.8625 10.7053C27.0552 10.417 27.158 10.078 27.158 9.73117C27.158 9.26614 26.9733 8.82016 26.6444 8.49133C26.3156 8.1625 25.8696 7.97777 25.4046 7.97777ZM32.126 11.5138C32.0976 10.3015 31.8705 9.102 31.4538 7.96316C31.0823 6.98875 30.504 6.10642 29.7589 5.37689C29.0353 4.62793 28.1509 4.05332 27.1726 3.69654C26.0368 3.26719 24.836 3.03494 23.622 3.00979C22.0731 2.92212 21.5763 2.92212 17.6019 2.92212C13.6276 2.92212 13.1308 2.92212 11.5819 3.00979C10.3679 3.03494 9.1671 3.26719 8.03127 3.69654C7.05474 4.05693 6.17111 4.63105 5.445 5.37689C4.69604 6.10042 4.12144 6.98482 3.76465 7.96316C3.33531 9.09899 3.10305 10.2998 3.0779 11.5138C2.99023 13.0626 2.99023 13.5594 2.99023 17.5338C2.99023 21.5082 2.99023 22.005 3.0779 23.5538C3.10305 24.7679 3.33531 25.9687 3.76465 27.1045C4.12144 28.0828 4.69604 28.9672 5.445 29.6908C6.17111 30.4366 7.05474 31.0107 8.03127 31.3711C9.1671 31.8005 10.3679 32.0327 11.5819 32.0579C13.1308 32.1455 13.6276 32.1455 17.6019 32.1455C21.5763 32.1455 22.0731 32.1455 23.622 32.0579C24.836 32.0327 26.0368 31.8005 27.1726 31.3711C28.1509 31.0143 29.0353 30.4397 29.7589 29.6908C30.5073 28.9639 31.0861 28.0808 31.4538 27.1045C31.8705 25.9656 32.0976 24.7662 32.126 23.5538C32.126 22.005 32.2136 21.5082 32.2136 17.5338C32.2136 13.5594 32.2136 13.0626 32.126 11.5138ZM29.4959 23.3785C29.4852 24.306 29.3172 25.225 28.9991 26.0963C28.7658 26.7322 28.391 27.3067 27.9032 27.7766C27.4293 28.2596 26.8559 28.6335 26.2228 28.8725C25.3515 29.1907 24.4326 29.3587 23.5051 29.3693C22.0439 29.4424 21.5033 29.457 17.6604 29.457C13.8175 29.457 13.2769 29.457 11.8157 29.3693C10.8526 29.3873 9.89367 29.239 8.98103 28.931C8.37579 28.6797 7.82869 28.3067 7.37375 27.8351C6.88877 27.3657 6.51873 26.7906 6.29248 26.1547C5.93574 25.2709 5.73788 24.3311 5.70801 23.3785C5.70801 21.9173 5.62034 21.3767 5.62034 17.5338C5.62034 13.6909 5.62034 13.1503 5.70801 11.6891C5.71456 10.7409 5.88766 9.80123 6.21942 8.91292C6.47666 8.29617 6.87149 7.7464 7.37375 7.30563C7.81767 6.80323 8.3663 6.40423 8.98103 6.13669C9.87169 5.8153 10.8104 5.64732 11.7573 5.6399C13.2184 5.6399 13.7591 5.55223 17.6019 5.55223C21.4448 5.55223 21.9854 5.55223 23.4466 5.6399C24.3741 5.65053 25.2931 5.81852 26.1644 6.13669C26.8284 6.38312 27.4244 6.78377 27.9032 7.30563C28.382 7.75447 28.7562 8.30322 28.9991 8.91292C29.3238 9.80267 29.4919 10.742 29.4959 11.6891C29.5689 13.1503 29.5835 13.6909 29.5835 17.5338C29.5835 21.3767 29.5689 21.9173 29.4959 23.3785ZM17.6019 10.038C16.12 10.0409 14.6722 10.483 13.4415 11.3084C12.2107 12.1338 11.2522 13.3055 10.6871 14.6754C10.122 16.0453 9.97569 17.552 10.2666 19.0051C10.5574 20.4582 11.2725 21.7925 12.3214 22.8393C13.3703 23.8861 14.7059 24.5986 16.1596 24.8866C17.6132 25.1747 19.1196 25.0254 20.4884 24.4576C21.8573 23.8899 23.0271 22.9291 23.8501 21.6967C24.6731 20.4644 25.1123 19.0157 25.1124 17.5338C25.1143 16.5477 24.9212 15.5709 24.5443 14.6596C24.1674 13.7484 23.614 12.9206 22.916 12.224C22.218 11.5274 21.3892 10.9756 20.4772 10.6005C19.5652 10.2253 18.5881 10.0342 17.6019 10.038ZM17.6019 22.3995C16.6396 22.3995 15.6989 22.1142 14.8987 21.5795C14.0985 21.0449 13.4749 20.2849 13.1066 19.3958C12.7383 18.5068 12.642 17.5284 12.8297 16.5846C13.0175 15.6407 13.4809 14.7737 14.1614 14.0933C14.8418 13.4128 15.7088 12.9494 16.6527 12.7616C17.5965 12.5739 18.5749 12.6702 19.464 13.0385C20.353 13.4068 21.113 14.0304 21.6476 14.8306C22.1823 15.6307 22.4676 16.5715 22.4676 17.5338C22.4676 18.1728 22.3418 18.8055 22.0973 19.3958C21.8527 19.9862 21.4943 20.5226 21.0425 20.9744C20.5907 21.4262 20.0543 21.7846 19.464 22.0291C18.8736 22.2737 18.2409 22.3995 17.6019 22.3995Z" fill="url(#paint0_linear_8_1412)"/>
<defs>
<linearGradient id="paint0_linear_8_1412" x1="17.6019" y1="2.92212" x2="17.6019" y2="37.0258" gradientUnits="userSpaceOnUse">
<stop stop-color="#D7AD19"/>
<stop offset="1" stop-color="#6C570D"/>
</linearGradient>
</defs>
</svg>
