<svg width="38" height="34" viewBox="0 0 38 34" fill="none" xmlns="http://www.w3.org/2000/svg">
<path d="M12.4259 2.52428L16.11 3.51165C17.016 3.75506 17.016 3.75597 17.0169 2.77959C17.0169 2.44467 17.0041 2.10883 17.0215 1.773C17.0177 1.54967 17.0586 1.32783 17.1418 1.12054C17.225 0.913245 17.3488 0.724678 17.5059 0.565927C17.663 0.407176 17.8503 0.281446 18.0568 0.196129C18.2632 0.110813 18.4846 0.0676334 18.7079 0.0691294C19.1602 0.0739582 19.5922 0.257445 19.9097 0.579562C20.2272 0.901678 20.4044 1.33628 20.4027 1.78856C20.4356 2.54075 20.4237 3.29569 20.4027 4.04971C20.3892 4.22061 20.424 4.39185 20.5031 4.54393C20.5822 4.69601 20.7025 4.82281 20.8501 4.90988C23.6256 6.85529 25.8939 9.43826 27.4643 12.4419C27.9602 13.4173 28.1877 14.5071 28.1234 15.5995C28.059 16.6919 27.7052 17.7475 27.0983 18.658C26.1841 20.0941 25.113 21.4239 23.9047 22.623C23.6818 22.8888 23.3951 23.0937 23.0716 23.2187C22.748 23.3437 22.3981 23.3846 22.0544 23.3377C21.724 23.2965 21.3818 23.3615 21.0478 23.324C20.5216 23.2636 20.3496 23.4759 20.3981 23.9846C20.4823 24.8631 20.0321 25.9887 20.5866 26.5578C21.067 27.0492 22.1816 26.6237 23.0088 26.7033C23.665 26.783 24.3306 26.6906 24.9402 26.4351C25.5499 26.1797 26.0826 25.7701 26.4861 25.2465C27.3336 24.248 28.4905 23.5613 29.773 23.2956C32.0955 22.7136 34.3859 22.0026 36.68 21.3126C37.2291 21.147 37.3892 21.2339 37.4423 21.8342C37.5448 22.9863 37.3508 23.8016 36.0907 24.2692C34.385 24.9016 33.4096 26.3739 32.5155 27.8847C31.8132 29.1213 31.0088 30.297 30.1107 31.3995C29.5561 32.1016 28.8443 32.6636 28.0328 33.0403C27.2212 33.417 26.3326 33.5978 25.4383 33.5682C20.4969 33.5161 15.5555 33.5554 10.6141 33.5499C8.19112 33.6046 5.82895 32.7881 3.95682 31.249C2.0847 29.7099 0.826874 27.5502 0.411911 25.1624C-0.00536393 23.0284 0.0358146 22.9781 2.18258 22.9781C4.38792 22.9781 6.59325 22.9927 8.79858 22.968C9.35587 22.9616 9.55718 23.0943 9.57914 23.7065C9.58629 24.1057 9.67201 24.4997 9.8314 24.8658C9.9908 25.232 10.2208 25.5631 10.5081 25.8404C10.7955 26.1176 11.1347 26.3356 11.5063 26.4818C11.8779 26.628 12.2747 26.6995 12.6739 26.6924C13.902 26.7134 15.1309 26.6731 16.358 26.7079C16.876 26.7226 17.0562 26.5496 17.0233 26.0417C16.9666 25.1825 17.3637 24.0798 16.8769 23.5244C16.3754 22.9524 15.249 23.4118 14.4016 23.3276C13.7748 23.2654 12.8862 23.6479 12.5852 23.14C12.2695 22.6075 13.0784 22.0804 13.3849 21.5496C14.4309 19.7405 15.5692 17.9717 15.9188 15.8597C16.3489 13.2691 15.6671 10.8185 14.8646 8.4009C14.2725 6.65973 13.5355 4.97129 12.6611 3.35334C12.4827 3.11562 12.3986 2.8203 12.425 2.52428" fill="url(#paint0_linear_8_1430)"/>
<path d="M6.72314 19.571C5.55276 19.571 4.38146 19.5775 3.21108 19.571C2.3628 19.5646 2.296 19.4603 2.76269 18.7338C5.05099 15.1412 7.34478 11.5522 9.64406 7.96697C9.88442 7.59179 10.1254 7.21752 10.367 6.84417C10.5884 6.50193 10.8245 6.52115 10.9718 6.87986C12.1084 9.55463 13.211 12.2568 12.8752 15.2464C12.5664 16.7227 11.9516 18.118 11.0707 19.3423C10.8941 19.6452 10.5857 19.5692 10.3185 19.571C9.11973 19.5784 7.92098 19.571 6.72314 19.571Z" fill="url(#paint1_linear_8_1430)"/>
<defs>
<linearGradient id="paint0_linear_8_1430" x1="18.9261" y1="-5.15554" x2="36.4428" y2="6.19131" gradientUnits="userSpaceOnUse">
<stop stop-color="#FFC149"/>
<stop offset="0.375" stop-color="#FFFEA1"/>
<stop offset="1" stop-color="#B48900"/>
</linearGradient>
<linearGradient id="paint1_linear_8_1430" x1="7.73105" y1="4.57462" x2="13.4466" y2="7.25377" gradientUnits="userSpaceOnUse">
<stop stop-color="#FFC149"/>
<stop offset="0.375" stop-color="#FFFEA1"/>
<stop offset="1" stop-color="#B48900"/>
</linearGradient>
</defs>
</svg>
