<svg width="38" height="34" viewBox="0 0 38 34" fill="none" xmlns="http://www.w3.org/2000/svg">
<path d="M12.4259 2.45616L16.11 3.44353C17.016 3.68694 17.016 3.68786 17.0169 2.71147C17.0169 2.37655 17.0041 2.04072 17.0215 1.70489C17.0177 1.48155 17.0586 1.25972 17.1418 1.05242C17.225 0.845129 17.3488 0.656563 17.5059 0.497812C17.663 0.339061 17.8503 0.21333 18.0568 0.128014C18.2632 0.0426979 18.4846 -0.000481846 18.7079 0.00101414C19.1602 0.00584294 19.5922 0.18933 19.9097 0.511446C20.2272 0.833563 20.4044 1.26817 20.4027 1.72044C20.4356 2.47264 20.4237 3.22757 20.4027 3.9816C20.3892 4.15249 20.424 4.32374 20.5031 4.47582C20.5822 4.6279 20.7025 4.7547 20.8501 4.84177C23.6256 6.78718 25.8939 9.37014 27.4643 12.3738C27.9602 13.3492 28.1877 14.439 28.1234 15.5314C28.059 16.6238 27.7052 17.6794 27.0983 18.5899C26.1841 20.0259 25.113 21.3558 23.9047 22.5549C23.6818 22.8207 23.3951 23.0256 23.0716 23.1506C22.748 23.2756 22.3981 23.3165 22.0544 23.2696C21.724 23.2284 21.3818 23.2934 21.0478 23.2558C20.5216 23.1955 20.3496 23.4078 20.3981 23.9165C20.4823 24.795 20.0321 25.9206 20.5866 26.4897C21.067 26.9811 22.1816 26.5556 23.0088 26.6352C23.665 26.7149 24.3306 26.6224 24.9402 26.367C25.5499 26.1116 26.0826 25.702 26.4861 25.1784C27.3336 24.1798 28.4905 23.4931 29.773 23.2275C32.0955 22.6455 34.3859 21.9345 36.68 21.2445C37.2291 21.0789 37.3892 21.1658 37.4423 21.7661C37.5448 22.9182 37.3508 23.7335 36.0907 24.2011C34.385 24.8334 33.4096 26.3058 32.5155 27.8166C31.8132 29.0531 31.0088 30.2288 30.1107 31.3314C29.5561 32.0335 28.8443 32.5955 28.0328 32.9722C27.2212 33.3489 26.3326 33.5297 25.4383 33.5001C20.4969 33.448 15.5555 33.4873 10.6141 33.4818C8.19112 33.5365 5.82895 32.72 3.95682 31.1809C2.0847 29.6417 0.826874 27.482 0.411911 25.0942C-0.00536393 22.9603 0.0358146 22.91 2.18258 22.91C4.38792 22.91 6.59325 22.9246 8.79858 22.8999C9.35587 22.8935 9.55718 23.0262 9.57914 23.6384C9.58629 24.0376 9.67201 24.4316 9.8314 24.7977C9.9908 25.1638 10.2208 25.495 10.5081 25.7723C10.7955 26.0495 11.1347 26.2675 11.5063 26.4137C11.8779 26.5598 12.2747 26.6314 12.6739 26.6242C13.902 26.6453 15.1309 26.605 16.358 26.6398C16.876 26.6544 17.0562 26.4815 17.0233 25.9736C16.9666 25.1144 17.3637 24.0117 16.8769 23.4563C16.3754 22.8843 15.249 23.3437 14.4016 23.2595C13.7748 23.1973 12.8862 23.5798 12.5852 23.0719C12.2695 22.5393 13.0784 22.0123 13.3849 21.4815C14.4309 19.6724 15.5692 17.9036 15.9188 15.7916C16.3489 13.201 15.6671 10.7504 14.8646 8.33278C14.2725 6.59161 13.5355 4.90318 12.6611 3.28522C12.4827 3.04751 12.3986 2.75219 12.425 2.45616" fill="url(#paint0_linear_8_1417)"/>
<path d="M6.72314 19.5029C5.55276 19.5029 4.38146 19.5093 3.21108 19.5029C2.3628 19.4965 2.296 19.3922 2.76269 18.6656C5.05099 15.073 7.34478 11.4841 9.64406 7.89885C9.88442 7.52367 10.1254 7.1494 10.367 6.77605C10.5884 6.43382 10.8245 6.45303 10.9718 6.81174C12.1084 9.48651 13.211 12.1887 12.8752 15.1783C12.5664 16.6546 11.9516 18.0499 11.0707 19.2742C10.8941 19.5771 10.5857 19.5011 10.3185 19.5029C9.11973 19.5103 7.92098 19.5029 6.72314 19.5029Z" fill="url(#paint1_linear_8_1417)"/>
<defs>
<linearGradient id="paint0_linear_8_1417" x1="18.8352" y1="0.000976562" x2="18.8352" y2="39.0981" gradientUnits="userSpaceOnUse">
<stop stop-color="#D7AD19"/>
<stop offset="1" stop-color="#6C570D"/>
</linearGradient>
<linearGradient id="paint1_linear_8_1417" x1="2.47461" y1="6.53064" x2="8.95657" y2="27.6936" gradientUnits="userSpaceOnUse">
<stop stop-color="#D7AD19"/>
<stop offset="1" stop-color="#6C570D"/>
</linearGradient>
</defs>
</svg>
