<svg width="30" height="31" viewBox="0 0 30 31" fill="none" xmlns="http://www.w3.org/2000/svg">
<path d="M23.1687 5.97777C22.822 5.97777 22.483 6.0806 22.1946 6.27327C21.9063 6.46594 21.6815 6.73978 21.5488 7.06017C21.4161 7.38057 21.3814 7.73312 21.449 8.07325C21.5167 8.41337 21.6837 8.7258 21.9289 8.97102C22.1741 9.21624 22.4865 9.38323 22.8267 9.45089C23.1668 9.51854 23.5194 9.48382 23.8397 9.35111C24.1601 9.2184 24.434 8.99366 24.6266 8.70531C24.8193 8.41697 24.9222 8.07796 24.9222 7.73117C24.9222 7.26614 24.7374 6.82016 24.4086 6.49133C24.0798 6.1625 23.6338 5.97777 23.1687 5.97777ZM29.8901 9.5138C29.8617 8.30147 29.6347 7.102 29.218 5.96316C28.8465 4.98875 28.2682 4.10642 27.523 3.37689C26.7995 2.62793 25.9151 2.05332 24.9368 1.69654C23.8009 1.26719 22.6001 1.03494 21.3861 1.00979C19.8373 0.922119 19.3405 0.922119 15.3661 0.922119C11.3917 0.922119 10.8949 0.922119 9.34608 1.00979C8.13207 1.03494 6.93126 1.26719 5.79543 1.69654C4.8189 2.05693 3.93527 2.63105 3.20916 3.37689C2.4602 4.10042 1.8856 4.98482 1.52881 5.96316C1.09947 7.09899 0.867211 8.29979 0.842065 9.5138C0.754394 11.0626 0.754395 11.5594 0.754395 15.5338C0.754395 19.5082 0.754394 20.005 0.842065 21.5538C0.867211 22.7679 1.09947 23.9687 1.52881 25.1045C1.8856 26.0828 2.4602 26.9672 3.20916 27.6908C3.93527 28.4366 4.8189 29.0107 5.79543 29.3711C6.93126 29.8005 8.13207 30.0327 9.34608 30.0579C10.8949 30.1455 11.3917 30.1455 15.3661 30.1455C19.3405 30.1455 19.8373 30.1455 21.3861 30.0579C22.6001 30.0327 23.8009 29.8005 24.9368 29.3711C25.9151 29.0143 26.7995 28.4397 27.523 27.6908C28.2715 26.9639 28.8503 26.0808 29.218 25.1045C29.6347 23.9656 29.8617 22.7662 29.8901 21.5538C29.8901 20.005 29.9778 19.5082 29.9778 15.5338C29.9778 11.5594 29.9778 11.0626 29.8901 9.5138ZM27.26 21.3785C27.2494 22.306 27.0814 23.225 26.7632 24.0963C26.5299 24.7322 26.1552 25.3067 25.6673 25.7766C25.1934 26.2596 24.62 26.6335 23.987 26.8725C23.1157 27.1907 22.1967 27.3587 21.2692 27.3693C19.8081 27.4424 19.2674 27.457 15.4245 27.457C11.5817 27.457 11.041 27.457 9.57986 27.3693C8.61679 27.3873 7.65783 27.239 6.74519 26.931C6.13995 26.6797 5.59285 26.3067 5.13791 25.8351C4.65293 25.3657 4.28289 24.7906 4.05664 24.1547C3.6999 23.2709 3.50204 22.3311 3.47217 21.3785C3.47217 19.9173 3.3845 19.3767 3.3845 15.5338C3.3845 11.6909 3.3845 11.1503 3.47217 9.68914C3.47872 8.74092 3.65182 7.80123 3.98358 6.91292C4.24082 6.29617 4.63565 5.7464 5.13791 5.30563C5.58183 4.80323 6.13046 4.40423 6.74519 4.13669C7.63585 3.8153 8.57457 3.64732 9.52142 3.6399C10.9826 3.6399 11.5232 3.55223 15.3661 3.55223C19.209 3.55223 19.7496 3.55223 21.2108 3.6399C22.1383 3.65053 23.0573 3.81852 23.9286 4.13669C24.5926 4.38312 25.1885 4.78377 25.6673 5.30563C26.1462 5.75447 26.5203 6.30322 26.7632 6.91292C27.088 7.80267 27.2561 8.74198 27.26 9.68914C27.3331 11.1503 27.3477 11.6909 27.3477 15.5338C27.3477 19.3767 27.3331 19.9173 27.26 21.3785ZM15.3661 8.03802C13.8842 8.04091 12.4364 8.48298 11.2056 9.30839C9.97489 10.1338 9.0164 11.3055 8.4513 12.6754C7.88621 14.0453 7.73985 15.552 8.03072 17.0051C8.3216 18.4582 9.03665 19.7925 10.0855 20.8393C11.1344 21.8861 12.4701 22.5986 13.9237 22.8866C15.3774 23.1747 16.8838 23.0254 18.2526 22.4576C19.6214 21.8899 20.7912 20.9291 21.6143 19.6967C22.4373 18.4644 22.8765 17.0157 22.8765 15.5338C22.8784 14.5477 22.6854 13.5709 22.3085 12.6596C21.9315 11.7484 21.3782 10.9206 20.6802 10.224C19.9822 9.52738 19.1534 8.97562 18.2414 8.60047C17.3294 8.22531 16.3522 8.03416 15.3661 8.03802ZM15.3661 20.3995C14.4038 20.3995 13.463 20.1142 12.6629 19.5795C11.8627 19.0449 11.2391 18.2849 10.8708 17.3958C10.5025 16.5068 10.4061 15.5284 10.5939 14.5846C10.7816 13.6407 11.2451 12.7737 11.9255 12.0933C12.606 11.4128 13.473 10.9494 14.4168 10.7616C15.3607 10.5739 16.339 10.6702 17.2281 11.0385C18.1172 11.4068 18.8771 12.0304 19.4118 12.8306C19.9464 13.6307 20.2318 14.5715 20.2318 15.5338C20.2318 16.1728 20.1059 16.8055 19.8614 17.3958C19.6169 17.9862 19.2585 18.5226 18.8067 18.9744C18.3548 19.4262 17.8185 19.7846 17.2281 20.0291C16.6378 20.2737 16.0051 20.3995 15.3661 20.3995Z" fill="url(#paint0_linear_312_21)"/>
<defs>
<linearGradient id="paint0_linear_312_21" x1="15.3661" y1="0.922119" x2="15.3661" y2="35.0258" gradientUnits="userSpaceOnUse">
<stop stop-color="#D7AD19"/>
<stop offset="1" stop-color="#6C570D"/>
</linearGradient>
</defs>
</svg>
