<svg width="388" height="161" viewBox="0 0 388 161" fill="none" xmlns="http://www.w3.org/2000/svg">
<path fill-rule="evenodd" clip-rule="evenodd" d="M100.354 107.16V70.6399H77.7741V107.16H27.1915L78.2315 7.49992H54.6548L4.9541 104.128V127.32H77.7741V153.5H100.354V127.32H116.854V107.16H100.354ZM0.954102 103.16V131.32H73.7741V157.5H104.354V131.32H120.854V103.16H104.354V66.6399H73.7741V103.16H33.7341L84.7741 3.49992H52.2141L0.954102 103.16ZM238.571 22.4199C227.865 7.75326 212.758 0.419922 193.251 0.419922C174.038 0.419922 158.931 7.75326 147.931 22.4199C137.078 37.0866 131.651 56.4466 131.651 80.4999C131.651 104.553 137.078 123.987 147.931 138.8C158.931 153.32 174.038 160.58 193.251 160.58C212.758 160.58 227.865 153.32 238.571 138.8C249.425 123.987 254.851 104.553 254.851 80.4999C254.851 56.4466 249.425 37.0866 238.571 22.4199ZM151.139 136.41C161.334 149.853 175.222 156.58 193.251 156.58C211.604 156.58 225.463 149.833 235.347 136.433C245.561 122.491 250.851 103.964 250.851 80.4999C250.851 57.0318 245.559 38.5872 235.356 24.7993L235.348 24.7889L235.341 24.7784C225.45 11.2296 211.591 4.41992 193.251 4.41992C175.231 4.41992 161.341 11.2124 151.139 24.8098C140.941 38.5966 135.651 57.0378 135.651 80.4999C135.651 103.951 140.936 122.471 151.139 136.41ZM169.931 118.12C164.651 109.467 162.011 96.9266 162.011 80.4999C162.011 64.0733 164.651 51.5333 169.931 42.8799C175.211 34.2266 182.985 29.8999 193.251 29.8999C203.518 29.8999 211.291 34.2266 216.571 42.8799C221.998 51.5333 224.711 64.0733 224.711 80.4999C224.711 96.7799 221.998 109.247 216.571 117.9C211.291 126.553 203.518 130.88 193.251 130.88C182.985 130.88 175.211 126.627 169.931 118.12ZM166.525 120.216L166.517 120.203C160.685 110.646 158.011 97.2504 158.011 80.4999C158.011 63.7494 160.685 50.3541 166.517 40.7965C172.534 30.9342 181.612 25.8999 193.251 25.8999C204.882 25.8999 213.955 30.9269 219.973 40.775C225.964 50.3419 228.711 63.748 228.711 80.4999C228.711 97.1135 225.962 110.442 219.973 120.005C213.955 129.853 204.882 134.88 193.251 134.88C181.644 134.88 172.565 129.948 166.533 120.229L166.525 120.216ZM366.546 107.16V70.6399H343.966V107.16H293.383L344.423 7.49992H320.846L271.146 104.128V127.32H343.966V153.5H366.546V127.32H383.046V107.16H366.546ZM267.146 103.16V131.32H339.966V157.5H370.546V131.32H387.046V103.16H370.546V66.6399H339.966V103.16H299.926L350.966 3.49992H318.406L267.146 103.16Z" fill="url(#paint0_linear_313_1200)"/>
<defs>
<linearGradient id="paint0_linear_313_1200" x1="197.812" y1="-33.0017" x2="312.177" y2="100.527" gradientUnits="userSpaceOnUse">
<stop stop-color="#FEFBC9"/>
<stop offset="1" stop-color="#D4AF37"/>
</linearGradient>
</defs>
</svg>
