<svg width="16" height="22" viewBox="0 0 16 22" fill="none" xmlns="http://www.w3.org/2000/svg">
<path d="M7.29289 0.292893C7.68342 -0.0976311 8.31658 -0.0976311 8.70711 0.292893L15.0711 6.65685C15.4616 7.04738 15.4616 7.68054 15.0711 8.07107C14.6805 8.46159 14.0474 8.46159 13.6569 8.07107L8 2.41421L2.34315 8.07107C1.95262 8.46159 1.31946 8.46159 0.928932 8.07107C0.538407 7.68054 0.538407 7.04738 0.928932 6.65685L7.29289 0.292893ZM7 22L7 11.5L9 11.5L9 22L7 22ZM7 11.5L7 1L9 1L9 11.5L7 11.5Z" fill="black"/>
</svg>
