<svg width="80" height="80" viewBox="0 0 80 80" fill="none" xmlns="http://www.w3.org/2000/svg">
<path d="M37.3881 0.0571823C31.8942 0.457184 26.9636 1.79596 22.1228 4.21229C15.9677 7.28983 10.9146 11.6898 6.92279 17.4694C5.50238 19.5184 3.6983 22.9388 2.75136 25.347C1.50238 28.5388 0.669725 31.8694 0.228908 35.4449C0.0738062 36.7511 0.0493164 37.3307 0.0493164 40C0.0493164 42.6694 0.0738062 43.249 0.228908 44.5551C0.596255 47.5102 1.16768 50.0817 2.07381 52.7756C6.84115 66.9225 19.1677 77.298 33.8779 79.5429C36.2942 79.9102 37.0371 79.9592 40.082 79.9592C43.1758 79.9511 44.1554 79.8776 46.6534 79.4613C60.4085 77.1674 72.1228 67.6735 77.2085 54.7184C78.5963 51.1919 79.3554 48.1143 79.8126 44.2041C79.9922 42.6531 80.0167 37.7225 79.8534 36.2041C79.7391 35.1511 79.3881 32.7756 79.2493 32.1388L79.1677 31.7551H77.135C76.0167 31.7551 75.1024 31.7715 75.1024 31.796C75.1024 31.8204 75.1922 32.2939 75.3065 32.8409C75.7881 35.2572 76.0003 37.4123 76.0003 39.9511C76.0003 44.1878 75.3881 47.8858 74.0248 51.8286C69.7963 64.0735 59.0044 73.2817 46.2861 75.4613C43.8534 75.8858 42.9228 75.9592 40.0003 75.9592C37.0942 75.9592 36.1799 75.8858 33.7554 75.4694C27.8371 74.449 22.2616 71.9102 17.3718 68.0164C15.9595 66.8898 13.1024 64.0327 11.9677 62.6123C8.22075 57.9021 5.80442 52.7347 4.66156 46.9796C4.17993 44.5307 4.04115 43.0041 4.04115 40C4.04115 36.996 4.17993 35.4694 4.66156 33.0205C5.80442 27.2653 8.22075 22.098 11.9677 17.3878C13.1105 15.9592 15.9595 13.1102 17.3881 11.9674C21.0534 9.0531 24.9065 6.97963 29.184 5.64085C31.5105 4.91432 33.6248 4.48167 36.4493 4.14698C37.8452 3.98371 42.433 4.0082 43.9187 4.1878C47.2085 4.58779 50.0167 5.26534 52.882 6.35106L53.7146 6.66943V4.52249V2.37555L52.4738 1.96738C49.3799 0.955139 46.2616 0.342896 42.9473 0.0816727C41.9514 0.0082016 38.3024 -0.00812531 37.3881 0.0571823Z" fill="url(#paint0_linear_26_1478)"/>
<path d="M75.3879 7.69772C61.1675 16.7018 47.3308 28.7263 35.9757 41.9426C35.0777 42.9875 34.2941 43.8283 34.2451 43.8038C34.1879 43.7875 30.5553 40.914 26.1716 37.412C21.7798 33.9181 18.139 31.061 18.09 31.061C17.9757 31.061 10.9471 36.7345 10.939 36.8324C10.939 36.8814 15.4206 41.5181 32.7675 59.412L38.9635 65.812L39.3961 64.7508C41.69 59.11 46.0818 51.1508 51.1675 43.4283C58.8165 31.8038 67.2573 21.4936 76.3104 12.71L77.8124 11.2569L76.9798 9.3222C76.5226 8.26098 76.1308 7.36302 76.0981 7.33853C76.0655 7.30588 75.7471 7.46914 75.3879 7.69772Z" fill="url(#paint1_linear_26_1478)"/>
<defs>
<linearGradient id="paint0_linear_26_1478" x1="40.2009" y1="92.4262" x2="80.534" y2="68.3384" gradientUnits="userSpaceOnUse">
<stop offset="0.125" stop-color="#FFC149"/>
<stop offset="0.484375" stop-color="#FFFEA1"/>
<stop offset="1" stop-color="#B48900"/>
</linearGradient>
<linearGradient id="paint1_linear_26_1478" x1="44.5388" y1="74.9315" x2="75.4649" y2="54.3141" gradientUnits="userSpaceOnUse">
<stop offset="0.125" stop-color="#FFC149"/>
<stop offset="0.484375" stop-color="#FFFEA1"/>
<stop offset="1" stop-color="#B48900"/>
</linearGradient>
</defs>
</svg>
