<svg width="29" height="20" viewBox="0 0 29 20" fill="none" xmlns="http://www.w3.org/2000/svg">
<path d="M25.4523 2.49741C21.9295 -0.0717027 18.5543 0.000502106 18.5543 0.000502106L18.2094 0.384595C22.3974 1.60908 24.3438 3.4097 24.3438 3.4097C18.3517 0.194646 10.7196 0.217715 4.48723 3.4097C4.48723 3.4097 6.50731 1.5129 10.9419 0.288422L10.6957 0.000202095C10.6957 0.000202095 7.34504 -0.0717027 3.79767 2.49711C3.79767 2.49711 0.25 8.7154 0.25 16.3745C0.25 16.3745 2.31958 19.8319 7.76406 20C7.76406 20 8.67557 18.9436 9.41462 18.0313C6.28596 17.119 5.1033 15.2222 5.1033 15.2222C7.06897 16.4209 9.05647 17.1711 11.5334 17.6472C15.5631 18.4555 20.5757 17.6244 24.3195 15.2222C24.3195 15.2222 23.0876 17.1669 19.8603 18.0553C20.5993 18.9436 21.4862 19.976 21.4862 19.976C26.9307 19.808 29 16.3505 29 16.3748C28.9997 8.7157 25.4523 2.49741 25.4523 2.49741ZM10.0304 14.1418C8.65067 14.1418 7.51751 12.9653 7.51751 11.5008C7.61834 7.99335 12.4676 8.00413 12.5433 11.5008C12.5433 12.9653 11.4344 14.1418 10.0304 14.1418ZM19.0222 14.1418C17.6425 14.1418 16.5094 12.9653 16.5094 11.5008C16.62 8.00024 21.4088 7.99874 21.5351 11.5008C21.5351 12.9653 20.4265 14.1418 19.0222 14.1418Z" fill="black"/>
</svg>
