<svg width="36" height="36" viewBox="0 0 36 36" fill="none" xmlns="http://www.w3.org/2000/svg">
<g clip-path="url(#clip0_8_1414)">
<path d="M31.0571 8.76367C26.9392 5.76054 22.9938 5.84495 22.9938 5.84495L22.5906 6.29393C27.4861 7.72527 29.7612 9.83008 29.7612 9.83008C22.757 6.07189 13.8355 6.09886 6.55022 9.83008C6.55022 9.83008 8.91156 7.61285 14.0953 6.18151L13.8075 5.8446C13.8075 5.8446 9.89082 5.76054 5.74417 8.76332C5.74417 8.76332 1.59717 16.0321 1.59717 24.9851C1.59717 24.9851 4.01637 29.0266 10.3806 29.2231C10.3806 29.2231 11.4461 27.9882 12.31 26.9218C8.65282 25.8554 7.27037 23.6381 7.27037 23.6381C9.56811 25.0394 11.8914 25.9163 14.7867 26.4728C19.4972 27.4177 25.3566 26.4462 29.7328 23.6381C29.7328 23.6381 28.2929 25.9114 24.5203 26.9498C25.3842 27.9882 26.421 29.1951 26.421 29.1951C32.7852 28.9986 35.2041 24.9571 35.2041 24.9854C35.2037 16.0325 31.0571 8.76367 31.0571 8.76367ZM13.0298 22.3753C11.417 22.3753 10.0924 21 10.0924 19.2881C10.2103 15.1881 15.8788 15.2007 15.9672 19.2881C15.9672 21 14.671 22.3753 13.0298 22.3753ZM23.5407 22.3753C21.9279 22.3753 20.6033 21 20.6033 19.2881C20.7327 15.1961 26.3304 15.1944 26.4781 19.2881C26.4781 21 25.1823 22.3753 23.5407 22.3753Z" fill="url(#paint0_linear_8_1414)"/>
</g>
<defs>
<linearGradient id="paint0_linear_8_1414" x1="18.4006" y1="5.84436" x2="18.4006" y2="33.1273" gradientUnits="userSpaceOnUse">
<stop stop-color="#D7AD19"/>
<stop offset="1" stop-color="#6C570D"/>
</linearGradient>
<clipPath id="clip0_8_1414">
<rect width="35.0681" height="35.0681" fill="white" transform="translate(0.13623)"/>
</clipPath>
</defs>
</svg>
