<svg width="116" height="116" viewBox="0 0 116 116" fill="none" xmlns="http://www.w3.org/2000/svg">
<rect x="8.50667" y="8.50667" width="98.9867" height="98.9867" rx="49.4933" stroke="url(#paint0_linear_3_571)" stroke-width="17.0133"/>
<path d="M80.5038 42.9432C73.2144 37.4884 66.2304 37.6417 66.2304 37.6417L65.5166 38.4572C74.1826 41.0571 78.2099 44.8802 78.2099 44.8802C65.8112 38.0539 50.0187 38.1029 37.1224 44.8802C37.1224 44.8802 41.3024 40.8529 50.4786 38.253L49.969 37.6411C49.969 37.6411 43.0359 37.4884 35.6956 42.9425C35.6956 42.9425 28.3547 56.1454 28.3547 72.4074C28.3547 72.4074 32.6371 79.7483 43.9029 80.1051C43.9029 80.1051 45.789 77.8622 47.3183 75.9251C40.8444 73.9881 38.3972 69.9608 38.3972 69.9608C42.4646 72.506 46.5772 74.0988 51.7025 75.1096C60.0408 76.8259 70.4129 75.0613 78.1597 69.9608C78.1597 69.9608 75.6107 74.0899 68.9326 75.976C70.4619 77.8622 72.2971 80.0543 72.2971 80.0543C83.563 79.6974 87.8447 72.3565 87.8447 72.408C87.8441 56.146 80.5038 42.9432 80.5038 42.9432ZM48.5925 67.6669C45.7375 67.6669 43.3927 65.1689 43.3927 62.0595C43.6014 54.6123 53.6357 54.6352 53.7922 62.0595C53.7922 65.1689 51.4976 67.6669 48.5925 67.6669ZM67.1986 67.6669C64.3436 67.6669 61.9988 65.1689 61.9988 62.0595C62.2279 54.6269 72.1368 54.6238 72.3983 62.0595C72.3983 65.1689 70.1044 67.6669 67.1986 67.6669Z" fill="url(#paint1_linear_3_571)"/>
<path d="M9.73432 35.3413L13.9477 37.3961C14.516 37.6732 14.9047 38.1124 15.114 38.7135C15.3193 39.3161 15.2668 39.9353 14.9567 40.5712L14.1124 40.1595C14.3104 39.7536 14.347 39.3728 14.2223 39.0172C14.103 38.6643 13.8742 38.4053 13.5359 38.2404L10.1669 36.5973L9.68981 37.5756L8.84551 37.1638L9.73432 35.3413Z" fill="black"/>
<path d="M13.9076 30.2562C13.5116 30.8389 13.3804 31.4741 13.5138 32.1616C13.6438 32.8542 13.9989 33.3976 14.5792 33.7919C15.1594 34.1861 15.7954 34.3161 16.4872 34.1819C17.1756 34.0527 17.7177 33.6967 18.1137 33.114C18.5079 32.5338 18.6383 31.8999 18.5049 31.2123C18.3749 30.5197 18.0198 29.9763 17.4395 29.582C16.8593 29.1878 16.2233 29.0578 15.5315 29.192C14.8431 29.3212 14.3018 29.6759 13.9076 30.2562ZM18.8832 33.6368C18.6175 34.0278 18.289 34.3506 17.8976 34.6052C17.5189 34.8465 17.107 35.0108 16.662 35.0979C16.2162 35.1808 15.7728 35.1798 15.3318 35.0949C14.8699 35.0032 14.4448 34.8253 14.0563 34.5614C13.6678 34.2974 13.3471 33.9685 13.0942 33.5746C12.8504 33.1942 12.6849 32.7815 12.5978 32.3365C12.5149 31.8906 12.5171 31.4481 12.6045 31.0088C12.6946 30.5495 12.8724 30.1243 13.1381 29.7333C13.402 29.3448 13.7309 29.0242 14.1248 28.7713C14.5011 28.5282 14.9117 28.3632 15.3567 28.2761C15.8042 28.1906 16.2489 28.1925 16.6907 28.2815C17.15 28.3716 17.5739 28.5486 17.9624 28.8125C18.3509 29.0765 18.6728 29.4063 18.9282 29.8018C19.1712 30.1781 19.3354 30.5899 19.4208 31.0375C19.5038 31.4833 19.5028 31.9267 19.4179 32.3677C19.3254 32.8253 19.1471 33.2484 18.8832 33.6368Z" fill="black"/>
<path d="M22.2996 28.8479L17.3124 24.371L17.9399 23.6719L22.9271 28.1488L22.2996 28.8479Z" fill="black"/>
<path d="M29.0535 22.708L22.3063 22.0155L25.3367 25.5147L24.6267 26.1296L20.0441 20.8382L26.7943 21.5341L23.752 18.0213L24.4621 17.4063L29.0535 22.708Z" fill="black"/>
<path d="M34.3178 12.032C33.6844 12.3405 33.2545 12.8261 33.0281 13.4889C32.7963 14.1544 32.8339 14.8025 33.1411 15.4331C33.4482 16.0638 33.9352 16.4931 34.602 16.7209C35.2635 16.9513 35.9109 16.9123 36.5443 16.6038C37.1749 16.2967 37.6035 15.8117 37.8299 15.1489C38.0617 14.4834 38.024 13.8353 37.7169 13.2047C37.4098 12.574 36.9228 12.1447 36.2559 11.9169C35.5945 11.6865 34.9484 11.7249 34.3178 12.032ZM36.9516 17.4402C36.5266 17.6472 36.0811 17.7637 35.6149 17.7898C35.1663 17.8107 34.7273 17.7482 34.2979 17.6023C33.87 17.4524 33.4858 17.231 33.1455 16.9379C32.7906 16.6285 32.5103 16.2627 32.3047 15.8405C32.099 15.4182 31.9845 14.9733 31.9611 14.5059C31.9389 14.0545 32.0007 13.6142 32.1466 13.1848C32.2965 12.7569 32.5186 12.3741 32.813 12.0365C33.1196 11.6829 33.4855 11.4026 33.9104 11.1956C34.3327 10.99 34.7776 10.8755 35.245 10.8521C35.6923 10.8285 36.1307 10.8896 36.56 11.0355C36.9907 11.184 37.3755 11.4069 37.7144 11.704C38.068 12.0106 38.3477 12.3751 38.5533 12.7973C38.7589 13.2196 38.8741 13.6658 38.8988 14.136C38.9224 14.5833 38.86 15.0223 38.7114 15.453C38.5615 15.8809 38.34 16.2651 38.047 16.6054C37.739 16.9563 37.3739 17.2346 36.9516 17.4402Z" fill="black"/>
<path d="M45.703 6.96708L46.7853 10.8708C46.9888 11.6048 46.9022 12.3068 46.5256 12.9767C46.1473 13.6408 45.5912 14.0746 44.8571 14.2781C44.1202 14.4824 43.4186 14.3973 42.7524 14.0227C42.0875 13.6416 41.6533 13.084 41.4498 12.35L40.3676 8.44627L41.2641 8.19773L42.3463 12.1014C42.4814 12.5888 42.7709 12.9569 43.2148 13.2056C43.6529 13.456 44.1171 13.5132 44.6074 13.3773C45.0948 13.2421 45.4618 12.9545 45.7085 12.5143C45.9609 12.0725 46.0196 11.6079 45.8844 11.1205L44.8022 7.21683L45.703 6.96708Z" fill="black"/>
<path d="M50.4446 6.97567L50.7534 9.8585L52.1948 9.7041C52.596 9.66113 52.9207 9.48404 53.1689 9.17282C53.4202 8.86127 53.5245 8.50643 53.4818 8.10828C53.4392 7.71013 53.2623 7.38692 52.951 7.13866C52.6422 6.88409 52.2872 6.77829 51.886 6.82126L50.4446 6.97567ZM53.5482 10.1269C53.8398 10.2773 54.1161 10.5384 54.377 10.9101C54.6421 11.2935 54.7995 11.7172 54.8492 12.1813L54.8617 12.298L53.9277 12.3981L53.9152 12.2813C53.8623 11.7874 53.642 11.384 53.2542 11.0713C52.8661 10.7556 52.4236 10.6243 51.9267 10.6775L50.8535 10.7925L51.0584 12.7054L50.1244 12.8055L49.4105 6.14171L51.786 5.88726C52.4416 5.81703 53.0277 5.98891 53.5444 6.40289C54.0585 6.82019 54.3504 7.35514 54.4203 8.00775C54.4678 8.4508 54.3951 8.87493 54.2024 9.28013C54.02 9.66908 53.8019 9.95133 53.5482 10.1269Z" fill="black"/>
<path d="M63.4267 11.6175C64.0835 11.7036 64.6761 11.5456 65.2047 11.1434C65.7363 10.7416 66.0469 10.211 66.1364 9.55169C66.2259 8.89237 66.0681 8.29821 65.6629 7.7692C65.2611 7.23762 64.732 6.92727 64.0757 6.83815L62.6974 6.651L62.0484 11.4303L63.4267 11.6175ZM61.0467 12.1283L61.9484 5.4874L64.2128 5.79487C64.6633 5.85603 65.0824 6.00258 65.4702 6.2345C65.8413 6.45504 66.1614 6.73852 66.4303 7.08495C66.6925 7.43654 66.8804 7.82058 66.994 8.23707C67.1141 8.67267 67.1435 9.11571 67.0824 9.5662C67.0216 10.0137 66.8751 10.4328 66.6427 10.8236C66.4222 11.1947 66.1374 11.5131 65.7884 11.7786C65.4394 12.0442 65.0567 12.2338 64.6402 12.3474C64.2016 12.4671 63.7585 12.4966 63.311 12.4358L61.0467 12.1283Z" fill="black"/>
<path d="M69.2209 13.445L70.943 6.96816L71.8508 7.20953L70.1287 13.6864L69.2209 13.445Z" fill="black"/>
<path d="M75.043 15.3668C74.5279 15.1631 74.1084 14.8565 73.7847 14.4469C73.3924 13.9487 73.2278 13.3495 73.291 12.6492L74.2188 12.7343C74.1754 13.1963 74.2788 13.5819 74.5288 13.8912C74.744 14.1576 75.0308 14.3616 75.3892 14.5032C75.4452 14.5254 75.4934 14.5428 75.5337 14.5555C75.574 14.5682 75.6244 14.58 75.6848 14.5909C75.8504 14.6305 76.0079 14.6458 76.1571 14.6368C76.5741 14.6138 76.8755 14.4125 77.0612 14.0326C77.1538 13.8394 77.1647 13.6397 77.094 13.4337C76.978 13.0965 76.6797 12.8151 76.1991 12.5895C75.3274 12.1738 74.7578 11.7026 74.49 11.1759C74.2848 10.7613 74.2708 10.3301 74.4479 9.88208C74.6836 9.28569 75.1094 8.90042 75.7254 8.72626C76.2698 8.56917 76.8403 8.60849 77.4367 8.84422C78.1422 9.12312 78.6326 9.60668 78.9077 10.2949C78.993 10.5132 79.0535 10.741 79.0891 10.9785C79.1013 11.1031 79.112 11.2481 79.1211 11.4136L78.1893 11.3998C78.1819 11.2382 78.1705 11.1075 78.155 11.0075C78.1406 10.9046 78.1029 10.7829 78.0419 10.6423C77.8612 10.1985 77.5455 9.88759 77.0947 9.7094C76.9575 9.65517 76.8108 9.61664 76.6548 9.59379C76.4685 9.56548 76.296 9.56367 76.1373 9.58836C75.7328 9.64536 75.458 9.85726 75.313 10.2241C75.1094 10.7392 75.5397 11.2476 76.604 11.7493C77.3121 12.0874 77.768 12.5476 77.9716 13.1299C78.13 13.581 78.1061 14.0183 77.8998 14.4418C77.6231 15.0026 77.1971 15.3554 76.6219 15.5004C76.1181 15.6282 75.5946 15.5848 75.0514 15.3701L75.043 15.3668Z" fill="black"/>
<path d="M82.7815 18.051C83.1924 18.3026 83.6384 18.4274 84.1197 18.4255C84.5891 18.4198 85.0538 18.2807 85.5137 18.008L86.0483 18.7695C85.4304 19.1502 84.7974 19.3452 84.1493 19.3544C83.4837 19.3634 82.8658 19.1935 82.2958 18.8445C81.8952 18.5992 81.5585 18.2872 81.2856 17.9083C81.024 17.5399 80.8391 17.1355 80.731 16.6951C80.627 16.2537 80.6078 15.8095 80.6732 15.3624C80.7439 14.9009 80.9019 14.4699 81.1471 14.0693C81.3924 13.6687 81.7052 13.3307 82.0856 13.0553C82.4525 12.7962 82.8561 12.6127 83.2965 12.5045C83.7379 12.4006 84.1821 12.3813 84.6292 12.4467C85.0907 12.5175 85.5218 12.6754 85.9223 12.9207C86.4924 13.2697 86.9247 13.7426 87.2194 14.3396C87.506 14.921 87.6202 15.5734 87.5621 16.2968L86.6408 16.167C86.676 15.6308 86.5886 15.1537 86.3786 14.7356C86.1614 14.3061 85.8474 13.9656 85.4366 13.7141C84.8383 13.3478 84.1976 13.2468 83.5146 13.4112C82.8315 13.5755 82.3069 13.9567 81.9406 14.555C81.5743 15.1533 81.4733 15.794 81.6376 16.477C81.8019 17.1601 82.1832 17.6848 82.7815 18.051Z" fill="black"/>
<path d="M93.681 19.731C93.1615 19.2552 92.5519 19.0336 91.8523 19.0664C91.1482 19.0952 90.5592 19.3682 90.0854 19.8854C89.6115 20.4027 89.3911 21.0133 89.4241 21.7172C89.4526 22.417 89.7266 23.0049 90.2461 23.4808C90.7634 23.9546 91.3719 24.1751 92.0715 24.1423C92.7756 24.1136 93.3646 23.8406 93.8384 23.3233C94.3123 22.806 94.5327 22.1955 94.4997 21.4916C94.4712 20.7917 94.1982 20.2049 93.681 19.731ZM89.6177 24.1668C89.2692 23.8475 88.9972 23.4758 88.8017 23.0518C88.6176 22.6422 88.5145 22.211 88.4925 21.758C88.4748 21.3049 88.5397 20.8663 88.6874 20.4422C88.8448 19.9984 89.0821 19.6034 89.3994 19.257C89.7166 18.9107 90.0884 18.6408 90.5146 18.4474C90.9262 18.261 91.3585 18.1568 91.8114 18.1349C92.2645 18.1171 92.7022 18.1832 93.1243 18.333C93.5658 18.4884 93.9608 18.7258 94.3094 19.045C94.6557 19.3623 94.9256 19.734 95.119 20.1603C95.3052 20.5676 95.4093 20.9978 95.4313 21.4507C95.4512 21.9059 95.3852 22.3456 95.2334 22.7699C95.078 23.2115 94.8417 23.6054 94.5244 23.9517C94.2072 24.2981 93.8344 24.569 93.4061 24.7647C92.9988 24.9509 92.5675 25.0539 92.1124 25.0739C91.6592 25.0916 91.2206 25.0267 90.7965 24.8791C90.357 24.7214 89.9641 24.484 89.6177 24.1668Z" fill="black"/>
<path d="M99.0543 25.3944L96.7547 27.1601L97.6376 28.3099C97.8833 28.6299 98.2037 28.8148 98.5987 28.8645C98.9955 28.9166 99.3527 28.8207 99.6703 28.5769C99.9879 28.333 100.172 28.0136 100.221 27.6186C100.278 27.2223 100.183 26.8642 99.9372 26.5442L99.0543 25.3944ZM97.982 29.6853C98.0056 30.0127 97.9267 30.3845 97.7453 30.8009C97.5562 31.2269 97.2766 31.5821 96.9065 31.8663L96.8134 31.9378L96.2413 31.1928L96.3344 31.1213C96.7284 30.8187 96.9579 30.4205 97.0227 29.9265C97.09 29.4308 96.9714 28.9847 96.667 28.5883L96.0097 27.7322L94.4838 28.9039L93.9117 28.1589L99.2273 24.0772L100.682 25.9721C101.084 26.4951 101.243 27.0849 101.158 27.7416C101.07 28.3978 100.766 28.9258 100.245 29.3255C99.8917 29.5969 99.4919 29.7559 99.0456 29.8025C98.6186 29.8495 98.264 29.8104 97.982 29.6853Z" fill="black"/>
<path d="M100.14 35.6105C100.455 36.1933 100.93 36.581 101.566 36.7738C102.203 36.9693 102.815 36.9102 103.402 36.5965C103.989 36.2828 104.378 35.8069 104.569 35.1686C104.765 34.5315 104.706 33.9209 104.394 33.3368L103.738 32.1101L99.4846 34.3838L100.14 35.6105ZM98.3321 33.9809L104.243 30.8215L105.32 32.8368C105.534 33.2377 105.661 33.6633 105.7 34.1134C105.739 34.5434 105.696 34.9688 105.573 35.3897C105.442 35.8082 105.241 36.1854 104.97 36.5214C104.687 36.874 104.345 37.1574 103.944 37.3717C103.546 37.5846 103.12 37.7113 102.668 37.752C102.238 37.7906 101.813 37.7463 101.393 37.619C100.973 37.4917 100.596 37.2926 100.26 37.0216C99.9056 36.7362 99.6222 36.3944 99.4093 35.9962L98.3321 33.9809Z" fill="black"/>
<path d="M106.301 81.2493L102.059 79.255C101.487 78.986 101.092 78.5525 100.874 77.9544C100.66 77.3548 100.704 76.7349 101.005 76.0946L101.855 76.4942C101.663 76.9029 101.632 77.2841 101.761 77.6379C101.886 77.9891 102.118 78.2448 102.459 78.4049L105.851 79.9995L106.314 79.0146L107.164 79.4142L106.301 81.2493Z" fill="black"/>
<path d="M102.202 86.3924C102.589 85.8041 102.711 85.1671 102.568 84.4815C102.428 83.7909 102.065 83.2526 101.48 82.8667C100.894 82.4808 100.256 82.3599 99.5662 82.504C98.8797 82.643 98.3427 83.0067 97.9551 83.5951C97.5692 84.1809 97.4479 84.8166 97.5911 85.5022C97.731 86.1929 98.0939 86.7311 98.6797 87.117C99.2655 87.5029 99.9033 87.6238 100.593 87.4798C101.28 87.3407 101.816 86.9783 102.202 86.3924ZM97.1782 83.0833C97.4383 82.6886 97.7621 82.3611 98.1498 82.1009C98.5251 81.8542 98.9345 81.6841 99.3783 81.5907C99.8229 81.5014 100.266 81.496 100.708 81.5746C101.171 81.6597 101.599 81.8314 101.991 82.0898C102.384 82.3482 102.709 82.6725 102.967 83.0627C103.217 83.4396 103.388 83.8499 103.481 84.2936C103.571 84.7382 103.575 85.1808 103.494 85.6213C103.41 86.0818 103.239 86.5095 102.979 86.9042C102.72 87.2964 102.396 87.6218 102.006 87.8803C101.633 88.1287 101.225 88.2996 100.781 88.3931C100.335 88.4849 99.8901 88.4894 99.4471 88.4067C98.9866 88.3232 98.5602 88.1523 98.1679 87.8939C97.7757 87.6356 97.4491 87.3104 97.1881 86.9186C96.9397 86.5458 96.7696 86.1364 96.6778 85.6901C96.5885 85.2455 96.5831 84.8022 96.6617 84.36C96.7477 83.9011 96.9199 83.4755 97.1782 83.0833Z" fill="black"/>
<path d="M93.8307 87.9216L98.8815 92.3266L98.2641 93.0346L93.2133 88.6295L93.8307 87.9216Z" fill="black"/>
<path d="M87.1658 94.1586L93.9222 94.7544L90.8421 91.299L91.5433 90.6739L96.2011 95.8992L89.4416 95.3L92.5338 98.769L91.8326 99.394L87.1658 94.1586Z" fill="black"/>
<path d="M82.0543 104.908C82.6832 104.59 83.1061 104.099 83.323 103.433C83.5453 102.764 83.4983 102.117 83.1822 101.49C82.8661 100.864 82.373 100.442 81.7029 100.224C81.0383 100.003 80.3915 100.051 79.7626 100.368C79.1364 100.685 78.7148 101.176 78.4979 101.842C78.2756 102.51 78.3226 103.158 78.6387 103.784C78.9548 104.41 79.4479 104.832 80.118 105.051C80.7826 105.272 81.428 105.224 82.0543 104.908ZM79.3433 99.538C79.7653 99.3249 80.2091 99.202 80.6749 99.1693C81.1232 99.142 81.563 99.1982 81.9944 99.3379C82.4245 99.4816 82.8117 99.6976 83.1562 99.9857C83.5155 100.29 83.801 100.652 84.0127 101.071C84.2243 101.49 84.3452 101.934 84.3753 102.401C84.404 102.852 84.3484 103.293 84.2087 103.724C84.065 104.154 83.8483 104.54 83.5588 104.882C83.2573 105.24 82.8955 105.525 82.4735 105.738C82.0543 105.95 81.6111 106.071 81.144 106.101C80.6971 106.131 80.2579 106.076 79.8265 105.936C79.3937 105.794 79.0058 105.577 78.6627 105.285C78.3047 104.983 78.0199 104.623 77.8082 104.203C77.5966 103.784 77.475 103.339 77.4436 102.87C77.4136 102.423 77.4698 101.983 77.6122 101.55C77.7559 101.12 77.9719 100.733 78.26 100.388C78.563 100.033 78.9241 99.7496 79.3433 99.538Z" fill="black"/>
<path d="M70.7431 110.136L69.6051 106.248C69.3911 105.517 69.4676 104.814 69.8347 104.139C70.2034 103.469 70.7532 103.028 71.4843 102.814C72.2182 102.599 72.9209 102.674 73.5924 103.039C74.2627 103.411 74.7049 103.962 74.9189 104.693L76.0568 108.581L75.164 108.842L74.026 104.954C73.8839 104.469 73.5892 104.105 73.1418 103.863C72.7002 103.619 72.2352 103.568 71.7469 103.711C71.2615 103.853 70.8986 104.146 70.6583 104.59C70.4122 105.035 70.3602 105.5 70.5023 105.986L71.6403 109.873L70.7431 110.136Z" fill="black"/>
<path d="M66.0018 110.195L65.6517 107.317L64.2127 107.492C63.8122 107.541 63.4901 107.722 63.2463 108.037C62.9995 108.352 62.9003 108.708 62.9486 109.106C62.997 109.503 63.1785 109.824 63.4932 110.068C63.8057 110.318 64.1622 110.419 64.5627 110.37L66.0018 110.195ZM62.8534 107.088C62.5596 106.942 62.2797 106.685 62.0135 106.317C61.7429 105.938 61.5794 105.516 61.5231 105.053L61.5089 104.936L62.4414 104.823L62.4556 104.939C62.5156 105.433 62.7416 105.833 63.1338 106.14C63.5264 106.45 63.9708 106.575 64.4669 106.515L65.5383 106.384L65.3061 104.475L66.2386 104.361L67.0476 111.014L64.6761 111.302C64.0216 111.382 63.433 111.219 62.9104 110.812C62.3905 110.402 62.0909 109.871 62.0117 109.22C61.9579 108.778 62.0245 108.352 62.2114 107.944C62.3882 107.553 62.6022 107.268 62.8534 107.088Z" fill="black"/>
<path d="M52.9547 105.738C52.2968 105.662 51.7064 105.828 51.1836 106.238C50.6579 106.647 50.3549 107.182 50.2748 107.843C50.1948 108.503 50.3611 109.095 50.7738 109.618C51.1832 110.144 51.7166 110.447 52.3742 110.527L53.755 110.694L54.3355 105.906L52.9547 105.738ZM55.3272 105.194L54.5205 111.847L52.252 111.572C51.8007 111.517 51.3795 111.376 50.9884 111.15C50.6142 110.935 50.2901 110.656 50.0162 110.313C49.7491 109.966 49.5557 109.584 49.4362 109.17C49.3098 108.736 49.274 108.293 49.3287 107.842C49.3831 107.393 49.5236 106.972 49.7503 106.578C49.9655 106.204 50.2457 105.882 50.5909 105.611C50.9361 105.341 51.3161 105.145 51.7309 105.026C52.1677 104.9 52.6103 104.864 53.0586 104.919L55.3272 105.194Z" fill="black"/>
<path d="M47.1347 103.995L45.5054 110.496L44.5942 110.267L46.2235 103.767L47.1347 103.995Z" fill="black"/>
<path d="M41.2857 102.156C41.8038 102.352 42.2275 102.653 42.5571 103.058C42.9564 103.55 43.1296 104.147 43.0765 104.848L42.1475 104.776C42.1843 104.314 42.0755 103.93 41.821 103.624C41.602 103.361 41.3123 103.161 40.9519 103.024C40.8956 103.003 40.8472 102.986 40.8067 102.974C40.7662 102.962 40.7157 102.951 40.6551 102.941C40.4889 102.904 40.3313 102.89 40.1822 102.902C39.7656 102.931 39.4671 103.136 39.2869 103.519C39.197 103.713 39.189 103.913 39.2626 104.118C39.3835 104.453 39.6857 104.731 40.1695 104.949C41.047 105.353 41.6234 105.816 41.8986 106.338C42.1097 106.75 42.13 107.181 41.9593 107.631C41.7321 108.231 41.3118 108.622 40.6984 108.805C40.1563 108.97 39.5854 108.939 38.9857 108.712C38.2762 108.443 37.7789 107.967 37.494 107.282C37.4056 107.065 37.3419 106.838 37.3029 106.602C37.2888 106.477 37.2761 106.332 37.2647 106.167L38.1965 106.167C38.2062 106.329 38.2195 106.459 38.2365 106.559C38.2523 106.662 38.2917 106.783 38.3547 106.923C38.5418 107.364 38.8619 107.67 39.3152 107.842C39.4532 107.894 39.6004 107.931 39.7567 107.951C39.9434 107.977 40.1159 107.976 40.2742 107.949C40.6779 107.886 40.9496 107.671 41.0893 107.302C41.2856 106.784 40.848 106.282 39.7766 105.795C39.0638 105.467 38.6014 105.014 38.3894 104.434C38.2246 103.986 38.2423 103.548 38.4425 103.122C38.7111 102.557 39.132 102.198 39.7051 102.045C40.207 101.91 40.7311 101.946 41.2773 102.153L41.2857 102.156Z" fill="black"/>
<path d="M33.5096 99.5837C33.0952 99.338 32.6474 99.2196 32.1662 99.2284C31.6969 99.2408 31.2343 99.3865 30.7783 99.6657L30.2328 98.912C30.8452 98.5225 31.4753 98.3185 32.1232 98.3C32.7887 98.2814 33.4089 98.4426 33.9839 98.7834C34.3879 99.0228 34.7291 99.33 35.0074 99.7049C35.2742 100.07 35.4648 100.471 35.5792 100.91C35.6895 101.35 35.7151 101.794 35.6561 102.242C35.592 102.704 35.4402 103.138 35.2007 103.542C34.9613 103.946 34.6533 104.288 34.2768 104.569C33.9137 104.833 33.5128 105.023 33.074 105.137C32.6341 105.247 32.1902 105.273 31.7422 105.214C31.2798 105.15 30.8465 104.998 30.4425 104.758C29.8675 104.418 29.4284 103.951 29.1252 103.358C28.8304 102.781 28.7068 102.13 28.7546 101.406L29.6776 101.523C29.6501 102.059 29.7443 102.535 29.9603 102.95C30.1836 103.377 30.5024 103.713 30.9168 103.958C31.5203 104.316 32.1623 104.408 32.843 104.234C33.5236 104.06 34.0427 103.671 34.4004 103.067C34.7581 102.464 34.8499 101.822 34.6758 101.141C34.5018 100.46 34.113 99.9413 33.5096 99.5837Z" fill="black"/>
<path d="M22.5873 98.0597C23.1135 98.5281 23.7262 98.7409 24.4253 98.6981C25.1289 98.6593 25.7139 98.3779 26.1803 97.8539C26.6467 97.3298 26.8584 96.7162 26.8153 96.0128C26.7768 95.3135 26.4943 94.7296 25.9681 94.2612C25.4441 93.7948 24.8325 93.583 24.1334 93.6258C23.4298 93.6646 22.8448 93.946 22.3784 94.47C21.9121 94.994 21.7004 95.6077 21.7434 96.3111C21.782 97.0104 22.0633 97.5933 22.5873 98.0597ZM26.5866 93.5663C26.9397 93.8805 27.217 94.2483 27.4185 94.6694C27.6085 95.0764 27.7177 95.5061 27.7462 95.9587C27.7704 96.4115 27.7117 96.851 27.5702 97.2772C27.4191 97.7231 27.1875 98.1215 26.8752 98.4724C26.563 98.8232 26.1951 99.0984 25.7717 99.2979C25.3628 99.4901 24.932 99.6005 24.4795 99.6289C24.0266 99.6532 23.5881 99.5934 23.1639 99.4496C22.7202 99.3005 22.3218 99.0689 21.9687 98.7546C21.6179 98.4423 21.3427 98.0745 21.1432 97.6511C20.9512 97.2464 20.841 96.8178 20.8125 96.3652C20.7861 95.9104 20.8457 95.4698 20.9915 95.0433C21.1406 94.5996 21.3713 94.2023 21.6835 93.8515C21.9958 93.5007 22.3646 93.2244 22.79 93.0226C23.1947 92.8306 23.6245 92.7214 24.0793 92.6949C24.5321 92.6707 24.9716 92.7294 25.3978 92.8709C25.8395 93.0222 26.2358 93.254 26.5866 93.5663Z" fill="black"/>
<path d="M17.1327 92.4736L19.4068 90.6751L18.5076 89.538C18.2573 89.2216 17.9344 89.0413 17.5387 88.9973C17.1412 88.9508 16.7854 89.0518 16.4713 89.3002C16.1572 89.5486 15.9781 89.8706 15.9341 90.2663C15.8834 90.6633 15.9832 91.0201 16.2335 91.3365L17.1327 92.4736ZM18.1436 88.1677C18.1153 87.8407 18.1889 87.4678 18.3642 87.0489C18.5472 86.6202 18.8217 86.261 19.1877 85.9716L19.2798 85.8987L19.8625 86.6355L19.7704 86.7084C19.3808 87.0165 19.1571 87.418 19.0993 87.9128C19.0391 88.4095 19.1641 88.8538 19.4741 89.2458L20.1436 90.0924L21.6526 88.899L22.2353 89.6358L16.9786 93.793L15.4967 91.9192C15.0877 91.402 14.9205 90.8145 14.9952 90.1566C15.0741 89.4993 15.371 88.967 15.8858 88.5599C16.2353 88.2835 16.6328 88.1188 17.0784 88.0658C17.5047 88.0127 17.8598 88.0467 18.1436 88.1677Z" fill="black"/>
<path d="M15.9014 82.2736C15.5782 81.6955 15.0974 81.3145 14.4591 81.1308C13.8194 80.9445 13.2083 81.0124 12.6261 81.3344C12.0438 81.6564 11.6616 82.1379 11.4794 82.7789C11.2931 83.4187 11.3602 84.0284 11.6808 84.608L12.354 85.8252L16.5746 83.4908L15.9014 82.2736ZM17.7328 83.8772L11.8681 87.1209L10.7622 85.1212C10.5421 84.7234 10.4093 84.2997 10.3636 83.8501C10.3188 83.4208 10.355 82.9948 10.4722 82.5721C10.5976 82.1519 10.7934 81.7718 11.0595 81.4319C11.3371 81.0754 11.6748 80.7871 12.0727 80.5671C12.4679 80.3485 12.8915 80.2156 13.3437 80.1685C13.7731 80.1237 14.1985 80.162 14.62 80.2833C15.0414 80.4045 15.4221 80.5983 15.762 80.8644C16.1199 81.1447 16.4082 81.4824 16.6268 81.8776L17.7328 83.8772Z" fill="black"/>
<defs>
<linearGradient id="paint0_linear_3_571" x1="58.2829" y1="-18.09" x2="116.075" y2="15.5544" gradientUnits="userSpaceOnUse">
<stop stop-color="#FEFBC9"/>
<stop offset="1" stop-color="#D4AF37"/>
</linearGradient>
<linearGradient id="paint1_linear_3_571" x1="11.5925" y1="47.3334" x2="28.4218" y2="95.9641" gradientUnits="userSpaceOnUse">
<stop offset="0.01" stop-color="#EDC73D"/>
<stop offset="0.25" stop-color="#FDFACC"/>
<stop offset="0.31" stop-color="#F4EEBB"/>
<stop offset="0.42" stop-color="#DECD8E"/>
<stop offset="0.57" stop-color="#BA9946"/>
<stop offset="0.6" stop-color="#B4903A"/>
<stop offset="0.87" stop-color="#E6D48A"/>
<stop offset="1" stop-color="#FDFACC"/>
</linearGradient>
</defs>
</svg>
