<svg width="786" height="139" viewBox="0 0 786 139" fill="none" xmlns="http://www.w3.org/2000/svg">
<g clip-path="url(#clip0_3_1105)">
<path d="M-6.10352e-05 41.842C35.3599 80.485 85.5219 104.965 137.349 111.193C176.358 115.876 216.039 110.028 253.086 97.415C273.847 90.621 294.411 83.154 314.748 75.196C331.117 68.889 347.172 61.935 363.79 56.184C380.43 50.226 398.449 47.115 416.14 48.937C422.744 49.5524 429.312 50.507 435.818 51.797C438.818 52.336 442.511 53.242 445.512 53.86C447.539 54.35 453.024 55.701 455.12 56.217C467.681 59.517 480.642 63.325 493.026 67.245C563.299 90.156 634.505 116.39 709.439 115.553C731.02 115.246 768.861 111.73 782.562 93.79C785.075 90.185 786.011 85.462 783.573 81.522C784.749 83.3966 785.281 85.6035 785.09 87.808C784.027 95.715 776.701 100.794 770.251 104.44C763.403 107.966 756.141 110.62 748.633 112.34C735.783 115.302 722.66 116.922 709.476 117.173C661.114 118.29 613.237 108.059 567.025 94.609C532.509 84.096 498.481 71.872 463.694 62.266C452.371 59.172 440.286 56.18 428.708 54.231C405.602 50.365 387.108 51.899 364.983 59.685C336.183 69.967 308.083 82.417 279.058 92.229C270.858 95.069 262.395 97.929 254.122 100.587C200.138 119.014 139.655 121.643 85.9829 100.775C53.3739 88.062 22.9829 68.375 -0.00109863 41.832" fill="url(#paint0_linear_3_1105)"/>
<path d="M-6.10352e-05 62.92C35.3599 101.563 85.5219 126.043 137.349 132.271C176.358 136.954 216.039 131.106 253.086 118.493C273.847 111.699 294.411 104.232 314.748 96.274C331.117 89.967 347.172 83.013 363.79 77.262C380.43 71.304 398.449 68.193 416.14 70.015C422.744 70.6304 429.312 71.585 435.818 72.875C438.818 73.414 442.511 74.32 445.512 74.938C447.539 75.428 453.024 76.779 455.12 77.295C467.681 80.595 480.642 84.403 493.026 88.323C563.299 111.234 634.505 137.468 709.439 136.631C731.02 136.324 768.861 132.808 782.562 114.868C785.075 111.263 786.011 106.54 783.573 102.6C784.749 104.476 785.281 106.685 785.088 108.891C784.025 116.798 776.699 121.877 770.249 125.523C763.401 129.049 756.139 131.703 748.631 133.423C735.781 136.385 722.658 138.005 709.474 138.256C661.112 139.373 613.235 129.142 567.023 115.692C532.507 105.179 498.479 92.955 463.692 83.349C452.369 80.255 440.284 77.263 428.706 75.314C405.6 71.448 387.106 72.982 364.981 80.768C336.181 91.05 308.081 103.5 279.056 113.312C270.856 116.152 262.393 119.012 254.12 121.67C200.136 140.097 139.653 142.726 85.9809 121.858C53.3719 109.145 22.9809 89.458 -0.00311279 62.915" fill="url(#paint1_linear_3_1105)"/>
<path d="M-6.10352e-05 0C35.3599 38.643 85.5219 63.123 137.349 69.351C176.358 74.034 216.039 68.186 253.086 55.573C273.847 48.779 294.411 41.312 314.748 33.354C331.117 27.047 347.172 20.093 363.79 14.342C380.43 8.384 398.449 5.273 416.139 7.095C422.743 7.71037 429.311 8.66497 435.817 9.955C438.817 10.494 442.51 11.4 445.511 12.018C447.538 12.508 453.023 13.859 455.119 14.375C467.68 17.675 480.641 21.483 493.025 25.403C563.299 48.314 634.505 74.548 709.439 73.711C731.022 73.4 768.864 69.888 782.564 51.948C785.077 48.342 786.013 43.62 783.576 39.679C784.752 41.5556 785.284 43.7648 785.09 45.971C784.028 53.877 776.701 58.956 770.251 62.6C763.403 66.1259 756.141 68.7799 748.633 70.5C735.784 73.4642 722.661 75.0862 709.477 75.34C661.115 76.457 613.238 66.226 567.026 52.776C532.51 42.263 498.482 30.039 463.695 20.433C452.372 17.339 440.287 14.347 428.709 12.398C405.603 8.532 387.109 10.066 364.984 17.852C336.184 28.134 308.084 40.584 279.059 50.396C270.859 53.236 262.396 56.096 254.123 58.754C200.139 77.182 139.656 79.811 85.9839 58.943C53.3749 46.23 22.9839 26.543 -6.10352e-05 0Z" fill="url(#paint2_linear_3_1105)"/>
<path d="M-6.10352e-05 21.078C35.3599 59.721 85.5219 84.201 137.349 90.429C176.358 95.112 216.039 89.264 253.086 76.651C273.847 69.857 294.411 62.39 314.748 54.432C331.117 48.125 347.172 41.171 363.79 35.42C380.43 29.462 398.449 26.351 416.139 28.169C422.743 28.7844 429.311 29.739 435.817 31.029C438.817 31.568 442.51 32.474 445.511 33.092C447.538 33.582 453.023 34.933 455.119 35.449C467.68 38.749 480.641 42.557 493.025 46.477C563.299 69.392 634.505 95.626 709.439 94.789C731.02 94.482 768.861 90.966 782.562 73.026C785.077 69.42 786.013 64.698 783.576 60.757C784.752 62.6336 785.284 64.8428 785.09 67.049C784.027 74.956 776.701 80.035 770.251 83.681C763.403 87.2069 756.141 89.8609 748.633 91.581C735.783 94.5429 722.66 96.1626 709.476 96.414C661.114 97.531 613.237 87.3 567.025 73.85C532.509 63.337 498.481 51.113 463.694 41.507C452.371 38.413 440.286 35.421 428.708 33.472C405.602 29.606 387.108 31.14 364.983 38.926C336.183 49.208 308.083 61.658 279.058 71.47C270.858 74.31 262.395 77.17 254.122 79.828C200.138 98.255 139.655 100.884 85.9829 80.016C53.3739 67.303 22.9829 47.616 -0.00109863 21.073" fill="url(#paint3_linear_3_1105)"/>
</g>
<defs>
<linearGradient id="paint0_linear_3_1105" x1="392.563" y1="41.832" x2="392.563" y2="117.256" gradientUnits="userSpaceOnUse">
<stop stop-color="#D4AF37"/>
<stop offset="1" stop-color="#9C7B0B"/>
</linearGradient>
<linearGradient id="paint1_linear_3_1105" x1="392.562" y1="62.915" x2="392.562" y2="138.34" gradientUnits="userSpaceOnUse">
<stop stop-color="#D4AF37"/>
<stop offset="1" stop-color="#9C7B0B"/>
</linearGradient>
<linearGradient id="paint2_linear_3_1105" x1="392.564" y1="0" x2="392.564" y2="75.4235" gradientUnits="userSpaceOnUse">
<stop stop-color="#D4AF37"/>
<stop offset="1" stop-color="#9C7B0B"/>
</linearGradient>
<linearGradient id="paint3_linear_3_1105" x1="392.564" y1="21.073" x2="392.564" y2="96.4975" gradientUnits="userSpaceOnUse">
<stop stop-color="#D4AF37"/>
<stop offset="1" stop-color="#9C7B0B"/>
</linearGradient>
<clipPath id="clip0_3_1105">
<rect width="785.139" height="138.343" fill="white" transform="matrix(-1 0 0 1 785.139 0)"/>
</clipPath>
</defs>
</svg>
