<svg width="786" height="76" viewBox="0 0 786 76" fill="none" xmlns="http://www.w3.org/2000/svg">
<path d="M0.0010376 0.00999451C35.361 38.653 85.523 63.133 137.35 69.361C176.359 74.044 216.04 68.196 253.087 55.583C273.848 48.789 294.412 41.322 314.749 33.364C331.118 27.057 347.173 20.103 363.791 14.352C380.431 8.394 398.45 5.283 416.141 7.105C422.745 7.72037 429.313 8.67496 435.819 9.965C438.819 10.504 442.512 11.41 445.513 12.028C447.54 12.518 453.025 13.869 455.121 14.385C467.682 17.685 480.643 21.493 493.027 25.413C563.3 48.324 634.506 74.558 709.44 73.721C731.021 73.414 768.862 69.898 782.563 51.958C785.076 48.353 786.012 43.63 783.574 39.69C784.75 41.5646 785.282 43.7714 785.091 45.976C784.028 53.883 776.702 58.962 770.252 62.608C763.404 66.1339 756.142 68.7879 748.634 70.508C735.784 73.4699 722.661 75.0896 709.477 75.341C661.115 76.458 613.238 66.227 567.026 52.777C532.51 42.264 498.482 30.04 463.695 20.434C452.372 17.34 440.287 14.348 428.709 12.399C405.603 8.53299 387.109 10.067 364.984 17.853C336.184 28.135 308.084 40.585 279.059 50.397C270.859 53.237 262.396 56.097 254.123 58.755C200.139 77.182 139.656 79.811 85.984 58.943C53.375 46.23 22.984 26.543 0 0" fill="url(#paint0_linear_313_1197)"/>
<defs>
<linearGradient id="paint0_linear_313_1197" x1="392.565" y1="0" x2="392.565" y2="75.4245" gradientUnits="userSpaceOnUse">
<stop stop-color="#D4AF37"/>
<stop offset="1" stop-color="#9C7B0B"/>
</linearGradient>
</defs>
</svg>
