<svg width="786" height="140" viewBox="0 0 786 140" fill="none" xmlns="http://www.w3.org/2000/svg">
<path d="M785.139 41.842C749.779 80.485 699.617 104.965 647.79 111.193C608.781 115.876 569.1 110.028 532.053 97.415C511.292 90.621 490.728 83.154 470.391 75.196C454.022 68.889 437.967 61.935 421.349 56.184C404.709 50.226 386.69 47.115 368.999 48.937C362.395 49.5524 355.827 50.507 349.321 51.797C346.321 52.336 342.628 53.242 339.627 53.86C337.6 54.35 332.115 55.701 330.019 56.217C317.458 59.517 304.497 63.325 292.113 67.245C221.84 90.156 150.634 116.39 75.7 115.553C54.119 115.246 16.278 111.73 2.577 93.79C0.0640005 90.185 -0.872 85.462 1.566 81.522C0.390187 83.3966 -0.142391 85.6035 0.0490004 87.808C1.112 95.715 8.438 100.794 14.888 104.44C21.7358 107.966 28.9983 110.62 36.506 112.34C49.3559 115.302 62.4786 116.922 75.663 117.173C124.025 118.29 171.902 108.059 218.114 94.609C252.63 84.096 286.658 71.872 321.445 62.266C332.768 59.172 344.853 56.18 356.431 54.231C379.537 50.365 398.031 51.899 420.156 59.685C448.956 69.967 477.056 82.417 506.081 92.229C514.281 95.069 522.744 97.929 531.017 100.587C585.001 119.014 645.484 121.643 699.156 100.775C731.765 88.062 762.156 68.375 785.14 41.832" fill="url(#paint0_linear_3_9)"/>
<path d="M785.139 62.92C749.779 101.563 699.617 126.043 647.79 132.271C608.781 136.954 569.1 131.106 532.053 118.493C511.292 111.699 490.728 104.232 470.391 96.274C454.022 89.967 437.967 83.013 421.349 77.262C404.709 71.304 386.69 68.193 368.999 70.015C362.395 70.6304 355.827 71.585 349.321 72.875C346.321 73.414 342.628 74.32 339.627 74.938C337.6 75.428 332.115 76.779 330.019 77.295C317.458 80.595 304.497 84.403 292.113 88.323C221.84 111.234 150.634 137.468 75.7 136.631C54.119 136.324 16.278 132.808 2.57697 114.868C0.06397 111.263 -0.87203 106.54 1.56597 102.6C0.389791 104.476 -0.142123 106.685 0.05097 108.891C1.11397 116.798 8.43997 121.877 14.89 125.523C21.7377 129.049 29.0003 131.703 36.508 133.423C49.3578 136.385 62.4805 138.005 75.665 138.256C124.027 139.373 171.904 129.142 218.116 115.692C252.632 105.179 286.66 92.955 321.447 83.349C332.77 80.255 344.855 77.263 356.433 75.314C379.539 71.448 398.033 72.982 420.158 80.768C448.958 91.05 477.058 103.5 506.083 113.312C514.283 116.152 522.746 119.012 531.019 121.67C585.003 140.097 645.486 142.726 699.158 121.858C731.767 109.145 762.158 89.458 785.142 62.915" fill="url(#paint1_linear_3_9)"/>
<path d="M785.139 0C749.779 38.643 699.617 63.123 647.79 69.351C608.781 74.034 569.1 68.186 532.053 55.573C511.292 48.779 490.728 41.312 470.391 33.354C454.022 27.047 437.967 20.093 421.349 14.342C404.709 8.384 386.69 5.273 369 7.095C362.396 7.71037 355.828 8.66497 349.322 9.955C346.322 10.494 342.629 11.4 339.628 12.018C337.601 12.508 332.116 13.859 330.02 14.375C317.459 17.675 304.498 21.483 292.114 25.403C221.84 48.314 150.634 74.548 75.7 73.711C54.117 73.4 16.275 69.888 2.57497 51.948C0.0619723 48.342 -0.874028 43.62 1.56297 39.679C0.38693 41.5556 -0.144639 43.7648 0.0489724 45.971C1.11097 53.877 8.43797 58.956 14.888 62.6C21.7357 66.1259 28.9983 68.7799 36.506 70.5C49.3553 73.4642 62.4776 75.0862 75.662 75.34C124.024 76.457 171.901 66.226 218.113 52.776C252.629 42.263 286.657 30.039 321.444 20.433C332.767 17.339 344.852 14.347 356.43 12.398C379.536 8.532 398.03 10.066 420.155 17.852C448.955 28.134 477.055 40.584 506.08 50.396C514.28 53.236 522.743 56.096 531.016 58.754C585 77.182 645.483 79.811 699.155 58.943C731.764 46.23 762.155 26.543 785.139 0Z" fill="url(#paint2_linear_3_9)"/>
<path d="M785.139 21.0782C749.779 59.7212 699.617 84.2012 647.79 90.4292C608.781 95.1122 569.1 89.2642 532.053 76.6512C511.292 69.8572 490.728 62.3902 470.391 54.4322C454.022 48.1252 437.967 41.1712 421.349 35.4202C404.709 29.4622 386.69 26.3512 369 28.1692C362.396 28.7846 355.828 29.7392 349.322 31.0292C346.322 31.5682 342.629 32.4742 339.628 33.0922C337.601 33.5822 332.116 34.9332 330.02 35.4492C317.459 38.7492 304.498 42.5572 292.114 46.4772C221.84 69.3922 150.634 95.6262 75.7 94.7892C54.119 94.4822 16.278 90.9662 2.57697 73.0262C0.061972 69.4202 -0.874028 64.6982 1.56297 60.7572C0.38693 62.6339 -0.144639 64.843 0.0489724 67.0492C1.11197 74.9562 8.43797 80.0352 14.888 83.6812C21.7357 87.2071 28.9983 89.8611 36.506 91.5812C49.3559 94.5432 62.4785 96.1628 75.663 96.4142C124.025 97.5312 171.902 87.3002 218.114 73.8502C252.63 63.3372 286.658 51.1132 321.445 41.5072C332.768 38.4132 344.853 35.4212 356.431 33.4722C379.537 29.6062 398.031 31.1402 420.156 38.9262C448.956 49.2082 477.056 61.6582 506.081 71.4702C514.281 74.3102 522.744 77.1702 531.017 79.8282C585.001 98.2552 645.484 100.884 699.156 80.0162C731.765 67.3032 762.156 47.6162 785.14 21.0732" fill="url(#paint3_linear_3_9)"/>
<defs>
<linearGradient id="paint0_linear_3_9" x1="392.575" y1="41.832" x2="392.575" y2="117.256" gradientUnits="userSpaceOnUse">
<stop stop-color="#D4AF37"/>
<stop offset="1" stop-color="#9C7B0B"/>
</linearGradient>
<linearGradient id="paint1_linear_3_9" x1="392.577" y1="62.915" x2="392.577" y2="138.34" gradientUnits="userSpaceOnUse">
<stop stop-color="#D4AF37"/>
<stop offset="1" stop-color="#9C7B0B"/>
</linearGradient>
<linearGradient id="paint2_linear_3_9" x1="392.574" y1="0" x2="392.574" y2="75.4235" gradientUnits="userSpaceOnUse">
<stop stop-color="#D4AF37"/>
<stop offset="1" stop-color="#9C7B0B"/>
</linearGradient>
<linearGradient id="paint3_linear_3_9" x1="392.575" y1="21.0732" x2="392.575" y2="96.4977" gradientUnits="userSpaceOnUse">
<stop stop-color="#D4AF37"/>
<stop offset="1" stop-color="#9C7B0B"/>
</linearGradient>
</defs>
</svg>
