<svg width="786" height="76" viewBox="0 0 786 76" fill="none" xmlns="http://www.w3.org/2000/svg">
<path d="M785.128 0.00999451C749.768 38.653 699.606 63.133 647.779 69.361C608.77 74.044 569.089 68.196 532.042 55.583C511.281 48.789 490.717 41.322 470.38 33.364C454.011 27.057 437.956 20.103 421.338 14.352C404.698 8.394 386.679 5.283 368.988 7.105C362.384 7.72037 355.816 8.67496 349.31 9.965C346.31 10.504 342.617 11.41 339.616 12.028C337.589 12.518 332.104 13.869 330.008 14.385C317.447 17.685 304.486 21.493 292.102 25.413C221.829 48.324 150.623 74.558 75.6891 73.721C54.1081 73.414 16.2671 69.898 2.56614 51.958C0.0531361 48.353 -0.882864 43.63 1.55514 39.69C0.379323 41.5646 -0.153255 43.7714 0.0381361 45.976C1.10114 53.883 8.42714 58.962 14.8771 62.608C21.7249 66.1339 28.9875 68.7879 36.4951 70.508C49.345 73.4699 62.4677 75.0896 75.6521 75.341C124.014 76.458 171.891 66.227 218.103 52.777C252.619 42.264 286.647 30.04 321.434 20.434C332.757 17.34 344.842 14.348 356.42 12.399C379.526 8.53299 398.02 10.067 420.145 17.853C448.945 28.135 477.045 40.585 506.07 50.397C514.27 53.237 522.733 56.097 531.006 58.755C584.99 77.182 645.473 79.811 699.145 58.943C731.754 46.23 762.145 26.543 785.129 0" fill="url(#paint0_linear_313_1198)"/>
<defs>
<linearGradient id="paint0_linear_313_1198" x1="392.565" y1="0" x2="392.565" y2="75.4245" gradientUnits="userSpaceOnUse">
<stop stop-color="#D4AF37"/>
<stop offset="1" stop-color="#9C7B0B"/>
</linearGradient>
</defs>
</svg>
