<svg width="1640" height="152" viewBox="0 0 1640 152" fill="none" xmlns="http://www.w3.org/2000/svg">
<path fill-rule="evenodd" clip-rule="evenodd" d="M408.192 27.241C235.802 -12.1103 99.4008 15.2051 5.48533 52.7637C3.43414 53.584 1.10633 52.5862 0.286016 50.535C-0.534294 48.4838 0.463532 46.156 2.51472 45.3357C97.7286 7.25787 235.79 -20.3189 409.972 19.4416C494.228 38.6755 559.811 58.3059 615.489 76.125C631.221 81.1597 646.14 86.0423 660.455 90.727C696.87 102.644 729.369 113.28 761.358 121.877C850.111 145.728 934.62 153.781 1085.24 128.412L1085.35 128.394C1085.34 128.394 1085.34 128.394 1085.34 128.394C1085.34 128.39 1085.51 128.356 1085.97 128.242C1086.49 128.111 1087.2 127.925 1088.07 127.693C1089.79 127.23 1092.07 126.6 1094.49 125.911C1099.38 124.522 1104.7 122.94 1107.32 122.016C1108.92 121.451 1110.7 120.82 1112.64 120.128C1173.93 98.3458 1403.73 16.6672 1636.9 70.7592C1639.06 71.2584 1640.4 73.4076 1639.9 75.5596C1639.4 77.7116 1637.25 79.0515 1635.1 78.5522C1404.26 25.0041 1176.37 105.974 1115.21 127.704C1113.31 128.383 1111.56 129.003 1109.98 129.56C1107.09 130.579 1101.54 132.225 1096.68 133.606C1094.23 134.303 1091.91 134.944 1090.14 135.419C1089.26 135.657 1088.49 135.856 1087.91 136.002L1087.89 136.008C1087.53 136.099 1086.98 136.236 1086.55 136.304C934.943 161.837 849.266 153.784 759.282 129.603C727.071 120.947 694.267 110.211 657.761 98.2637C643.486 93.5919 628.644 88.7348 613.051 83.7443C557.508 65.9688 492.157 46.4084 408.192 27.241Z" fill="#FDCC1D"/>
</svg>
