<svg width="156" height="50" viewBox="0 0 156 50" fill="none" xmlns="http://www.w3.org/2000/svg">
<path d="M5 1H151V-1H5V1ZM155 5V45H157V5H155ZM151 49H5V51H151V49ZM1 45V5H-1V45H1ZM5 49C2.79086 49 1 47.2091 1 45H-1C-1 48.3137 1.68629 51 5 51V49ZM155 45C155 47.2091 153.209 49 151 49V51C154.314 51 157 48.3137 157 45H155ZM151 1C153.209 1 155 2.79086 155 5H157C157 1.68629 154.314 -1 151 -1V1ZM5 -1C1.68629 -1 -1 1.68629 -1 5H1C1 2.79086 2.79086 1 5 1V-1Z" fill="url(#paint0_linear_3_645)"/>
<defs>
<linearGradient id="paint0_linear_3_645" x1="78.3805" y1="-7.79743" x2="102.483" y2="36.3354" gradientUnits="userSpaceOnUse">
<stop stop-color="#FFC149"/>
<stop offset="0.375" stop-color="#FFFEA1"/>
<stop offset="1" stop-color="#B48900"/>
</linearGradient>
</defs>
</svg>
