<svg width="31" height="31" viewBox="0 0 31 31" fill="none" xmlns="http://www.w3.org/2000/svg">
<path d="M23.4046 5.97777C23.0578 5.97777 22.7188 6.0806 22.4304 6.27327C22.1421 6.46594 21.9174 6.73978 21.7847 7.06017C21.6519 7.38057 21.6172 7.73312 21.6849 8.07325C21.7525 8.41337 21.9195 8.7258 22.1647 8.97102C22.41 9.21624 22.7224 9.38323 23.0625 9.45089C23.4026 9.51854 23.7552 9.48382 24.0756 9.35111C24.396 9.2184 24.6698 8.99366 24.8625 8.70531C25.0552 8.41697 25.158 8.07796 25.158 7.73117C25.158 7.26614 24.9733 6.82016 24.6444 6.49133C24.3156 6.1625 23.8696 5.97777 23.4046 5.97777ZM30.126 9.5138C30.0976 8.30147 29.8705 7.102 29.4538 5.96316C29.0823 4.98875 28.504 4.10642 27.7589 3.37689C27.0353 2.62793 26.1509 2.05332 25.1726 1.69654C24.0368 1.26719 22.836 1.03494 21.622 1.00979C20.0731 0.922119 19.5763 0.922119 15.6019 0.922119C11.6276 0.922119 11.1308 0.922119 9.58192 1.00979C8.36791 1.03494 7.1671 1.26719 6.03127 1.69654C5.05474 2.05693 4.17111 2.63105 3.445 3.37689C2.69604 4.10042 2.12144 4.98482 1.76465 5.96316C1.33531 7.09899 1.10305 8.29979 1.0779 9.5138C0.990234 11.0626 0.990234 11.5594 0.990234 15.5338C0.990234 19.5082 0.990234 20.005 1.0779 21.5538C1.10305 22.7679 1.33531 23.9687 1.76465 25.1045C2.12144 26.0828 2.69604 26.9672 3.445 27.6908C4.17111 28.4366 5.05474 29.0107 6.03127 29.3711C7.1671 29.8005 8.36791 30.0327 9.58192 30.0579C11.1308 30.1455 11.6276 30.1455 15.6019 30.1455C19.5763 30.1455 20.0731 30.1455 21.622 30.0579C22.836 30.0327 24.0368 29.8005 25.1726 29.3711C26.1509 29.0143 27.0353 28.4397 27.7589 27.6908C28.5073 26.9639 29.0861 26.0808 29.4538 25.1045C29.8705 23.9656 30.0976 22.7662 30.126 21.5538C30.126 20.005 30.2136 19.5082 30.2136 15.5338C30.2136 11.5594 30.2136 11.0626 30.126 9.5138ZM27.4959 21.3785C27.4852 22.306 27.3172 23.225 26.9991 24.0963C26.7658 24.7322 26.391 25.3067 25.9032 25.7766C25.4293 26.2596 24.8559 26.6335 24.2228 26.8725C23.3515 27.1907 22.4326 27.3587 21.5051 27.3693C20.0439 27.4424 19.5033 27.457 15.6604 27.457C11.8175 27.457 11.2769 27.457 9.8157 27.3693C8.85263 27.3873 7.89367 27.239 6.98103 26.931C6.37579 26.6797 5.82869 26.3067 5.37375 25.8351C4.88877 25.3657 4.51873 24.7906 4.29248 24.1547C3.93574 23.2709 3.73788 22.3311 3.70801 21.3785C3.70801 19.9173 3.62034 19.3767 3.62034 15.5338C3.62034 11.6909 3.62034 11.1503 3.70801 9.68914C3.71456 8.74092 3.88766 7.80123 4.21942 6.91292C4.47666 6.29617 4.87149 5.7464 5.37375 5.30563C5.81767 4.80323 6.3663 4.40423 6.98103 4.13669C7.87169 3.8153 8.81041 3.64732 9.75726 3.6399C11.2184 3.6399 11.7591 3.55223 15.6019 3.55223C19.4448 3.55223 19.9854 3.55223 21.4466 3.6399C22.3741 3.65053 23.2931 3.81852 24.1644 4.13669C24.8284 4.38312 25.4244 4.78377 25.9032 5.30563C26.382 5.75447 26.7562 6.30322 26.9991 6.91292C27.3238 7.80267 27.4919 8.74198 27.4959 9.68914C27.5689 11.1503 27.5835 11.6909 27.5835 15.5338C27.5835 19.3767 27.5689 19.9173 27.4959 21.3785ZM15.6019 8.03802C14.12 8.04091 12.6722 8.48298 11.4415 9.30839C10.2107 10.1338 9.25224 11.3055 8.68714 12.6754C8.12205 14.0453 7.97569 15.552 8.26656 17.0051C8.55744 18.4582 9.27249 19.7925 10.3214 20.8393C11.3703 21.8861 12.7059 22.5986 14.1596 22.8866C15.6132 23.1747 17.1196 23.0254 18.4884 22.4576C19.8573 21.8899 21.0271 20.9291 21.8501 19.6967C22.6731 18.4644 23.1123 17.0157 23.1124 15.5338C23.1143 14.5477 22.9212 13.5709 22.5443 12.6596C22.1674 11.7484 21.614 10.9206 20.916 10.224C20.218 9.52738 19.3892 8.97562 18.4772 8.60047C17.5652 8.22531 16.5881 8.03416 15.6019 8.03802ZM15.6019 20.3995C14.6396 20.3995 13.6989 20.1142 12.8987 19.5795C12.0985 19.0449 11.4749 18.2849 11.1066 17.3958C10.7383 16.5068 10.642 15.5284 10.8297 14.5846C11.0175 13.6407 11.4809 12.7737 12.1614 12.0933C12.8418 11.4128 13.7088 10.9494 14.6527 10.7616C15.5965 10.5739 16.5749 10.6702 17.464 11.0385C18.353 11.4068 19.113 12.0304 19.6476 12.8306C20.1823 13.6307 20.4676 14.5715 20.4676 15.5338C20.4676 16.1728 20.3418 16.8055 20.0973 17.3958C19.8527 17.9862 19.4943 18.5226 19.0425 18.9744C18.5907 19.4262 18.0543 19.7846 17.464 20.0291C16.8736 20.2737 16.2409 20.3995 15.6019 20.3995Z" fill="url(#paint0_linear_8_1413)"/>
<defs>
<linearGradient id="paint0_linear_8_1413" x1="15.6019" y1="0.922119" x2="15.6019" y2="35.0258" gradientUnits="userSpaceOnUse">
<stop stop-color="#D7AD19"/>
<stop offset="1" stop-color="#6C570D"/>
</linearGradient>
</defs>
</svg>
