<svg width="39" height="34" viewBox="0 0 39 34" fill="none" xmlns="http://www.w3.org/2000/svg">
<path d="M13.1901 2.45616L16.8742 3.44353C17.7801 3.68694 17.7801 3.68786 17.781 2.71147C17.781 2.37655 17.7682 2.04072 17.7856 1.70489C17.7818 1.48155 17.8227 1.25972 17.9059 1.05242C17.9891 0.845129 18.1129 0.656563 18.2701 0.497812C18.4272 0.339061 18.6145 0.21333 18.8209 0.128014C19.0273 0.0426979 19.2487 -0.000481846 19.4721 0.00101414C19.9244 0.00584294 20.3564 0.18933 20.6738 0.511446C20.9913 0.833563 21.1685 1.26817 21.1668 1.72044C21.1998 2.47264 21.1879 3.22757 21.1668 3.9816C21.1534 4.15249 21.1882 4.32374 21.2673 4.47582C21.3464 4.6279 21.4666 4.7547 21.6143 4.84177C24.3898 6.78718 26.658 9.37014 28.2285 12.3738C28.7244 13.3492 28.9518 14.439 28.8875 15.5314C28.8232 16.6238 28.4694 17.6794 27.8624 18.5899C26.9483 20.0259 25.8772 21.3558 24.6688 22.5549C24.4459 22.8207 24.1593 23.0256 23.8357 23.1506C23.5122 23.2756 23.1622 23.3165 22.8185 23.2696C22.4882 23.2284 22.146 23.2934 21.812 23.2558C21.2858 23.1955 21.1138 23.4078 21.1623 23.9165C21.2464 24.795 20.7962 25.9206 21.3508 26.4897C21.8312 26.9811 22.9457 26.5556 23.773 26.6352C24.4291 26.7149 25.0948 26.6224 25.7044 26.367C26.3141 26.1116 26.8468 25.702 27.2503 25.1784C28.0978 24.1798 29.2547 23.4931 30.5372 23.2275C32.8597 22.6455 35.1501 21.9345 37.4442 21.2445C37.9932 21.0789 38.1534 21.1658 38.2065 21.7661C38.309 22.9182 38.115 23.7335 36.8549 24.2011C35.1492 24.8334 34.1737 26.3058 33.2797 27.8166C32.5774 29.0531 31.773 30.2288 30.8749 31.3314C30.3202 32.0335 29.6085 32.5955 28.7969 32.9722C27.9854 33.3489 27.0967 33.5297 26.2025 33.5001C21.2611 33.448 16.3197 33.4873 11.3783 33.4818C8.95528 33.5365 6.59311 32.72 4.72098 31.1809C2.84886 29.6417 1.59103 27.482 1.17607 25.0942C0.758796 22.9603 0.799975 22.91 2.94674 22.91C5.15208 22.91 7.35741 22.9246 9.56275 22.8999C10.12 22.8935 10.3213 23.0262 10.3433 23.6384C10.3505 24.0376 10.4362 24.4316 10.5956 24.7977C10.755 25.1638 10.9849 25.495 11.2723 25.7723C11.5597 26.0495 11.8988 26.2675 12.2705 26.4137C12.6421 26.5598 13.0388 26.6314 13.4381 26.6242C14.6661 26.6453 15.8951 26.605 17.1222 26.6398C17.6401 26.6544 17.8204 26.4815 17.7874 25.9736C17.7307 25.1144 18.1279 24.0117 17.641 23.4563C17.1396 22.8843 16.0131 23.3437 15.1658 23.2595C14.5389 23.1973 13.6504 23.5798 13.3493 23.0719C13.0336 22.5393 13.8426 22.0123 14.1491 21.4815C15.195 19.6724 16.3334 17.9036 16.683 15.7916C17.113 13.201 16.4313 10.7504 15.6288 8.33278C15.0367 6.59161 14.2996 4.90318 13.4253 3.28522C13.2469 3.04751 13.1628 2.75219 13.1892 2.45616" fill="url(#paint0_linear_312_26)"/>
<defs>
<linearGradient id="paint0_linear_312_26" x1="19.5994" y1="0.000976562" x2="19.5994" y2="39.0981" gradientUnits="userSpaceOnUse">
<stop stop-color="#D7AD19"/>
<stop offset="1" stop-color="#6C570D"/>
</linearGradient>
</defs>
</svg>
